<?xml version="1.0" encoding="UTF-8"?>
<!DOCTYPE svg PUBLIC "-//W3C//DTD SVG 1.1//EN" "http://www.w3.org/Graphics/SVG/1.1/DTD/svg11.dtd">
<!-- Creator: CorelDRAW -->
<svg xmlns="http://www.w3.org/2000/svg" xml:space="preserve" width="312.159mm" height="208.107mm" style="shape-rendering:geometricPrecision; text-rendering:geometricPrecision; image-rendering:optimizeQuality; fill-rule:evenodd; clip-rule:evenodd"
viewBox="0 0 312.159 208.107"
 xmlns:xlink="http://www.w3.org/1999/xlink">
 <defs>
  <style type="text/css">
   <![CDATA[
    .fil9 {fill:#6871B4}
    .fil11 {fill:#6A73B5}
    .fil8 {fill:#6C73B5}
    .fil1 {fill:#787EBC}
    .fil3 {fill:#7B80BC}
    .fil2 {fill:#7B81BE}
    .fil4 {fill:#7C7FBC}
    .fil5 {fill:#7D82BE}
    .fil0 {fill:#7F83BE}
    .fil13 {fill:#B4B2C5}
    .fil10 {fill:#D1D4EB}
    .fil7 {fill:#DEE0F0}
    .fil6 {fill:#E8EAF5}
    .fil12 {fill:#FEFEFE}
   ]]>
  </style>
 </defs>
 <g id="Capa_x0020_1">
  <metadata id="CorelCorpID_0Corel-Layer"/>
  <g id="_409751096">
   <polygon id="_404633968" class="fil0" points="312.159,208.107 -0,208.107 -0,0.0001 312.159,0.0001 "/>
   <g>
    <path id="_404634232" class="fil1" d="M177.235 39.0705c-1.2864,0 -2.5642,-0.2242 -3.7462,-0.7181 -2.2558,-0.9399 -4.1164,-2.928 -4.6158,-5.3191 -1.9852,-9.5272 13.452,-19.2037 21.6638,-19.2285 0.0125,0 0.0251,0 0.0376,0 11.1921,0 11.5333,15.6777 2.5472,19.9084 -1.8811,0.8868 -3.9499,1.3029 -5.8936,2.0443 -2.2221,0.8473 -4.2787,2.1169 -6.5595,2.7985 -1.111,0.3318 -2.2767,0.5146 -3.4335,0.5145z"/>
    <path id="_404633512" class="fil2" d="M195.016 59.2017c-0.4659,0 -0.9324,-0.0336 -1.3944,-0.1036 -2.6844,-0.4045 -5.1485,-1.8409 -7.0631,-3.7596 -0.8862,-0.8883 -1.6732,-1.9225 -2.2642,-3.0422 0.5871,-0.7962 0.7533,-1.9075 0.3912,-2.8365 -0.2789,-0.7072 -0.8324,-1.281 -1.5025,-1.6335 0.0128,-0.3418 0.0458,-0.6843 0.1081,-1.026 1.0781,-5.9382 6.1851,-8.7761 11.267,-8.7761 6.1227,-0.0001 12.22,4.1183 11.2212,11.8973 -0.6614,5.1447 -5.6315,9.2803 -10.7633,9.2802z"/>
    <path id="_404633632" class="fil1" d="M205.047 35.1465c-0.9988,0 -1.9396,-0.3136 -2.6596,-1.06 -3.1255,-3.2469 1.773,-16.0946 6.6636,-16.3218 0.1043,-0.005 0.208,-0.0075 0.312,-0.0075 7.28,0 3.5712,12.4067 0.3123,15.4234 -1.2317,1.1413 -3.0051,1.966 -4.6283,1.9659z"/>
    <path id="_404633536" class="fil1" d="M202.645 16.2156c-0.142,0 -0.2793,-0.0074 -0.4209,-0.023 -1.9016,-0.2104 -3.2964,-1.8097 -4.8572,-2.9204 -2.5135,-1.7909 -5.6813,-2.383 -8.4282,-3.7946 -2.7468,-1.4114 -5.2527,-4.2942 -4.5118,-7.2923 0.2044,-0.8259 0.6243,-1.547 1.1945,-2.1853l23.7118 0c0.1251,0.2177 0.2454,0.4381 0.362,0.6608 1.4693,2.8325 2.4473,6.2547 1.1695,9.1791 -0.7738,1.7748 -2.2767,3.1161 -3.7917,4.3212 -1.2983,1.0315 -2.8011,2.0547 -4.428,2.0545z"/>
    <path id="_404634208" class="fil3" d="M149.303 30.2445c-3.2007,0 -6.3808,-0.8535 -9.0486,-2.6252 -5.2901,-3.5146 -8.0372,-10.6632 -5.9768,-16.6728 1.0821,-3.1623 3.313,-5.828 5.8976,-7.9485 1.4112,-1.1577 2.9385,-2.1588 4.5534,-2.998l23.6746 0c0.0333,0.0247 0.0621,0.0498 0.0954,0.0749 3.2843,2.6232 7.3878,4.434 11.0462,6.4909 1.249,0.7 2.5722,1.4848 3.1549,2.7903 0.6287,1.4124 0.1915,3.1308 -0.7658,4.3464 -0.957,1.2156 -2.3473,2.0068 -3.7625,2.6318 -3.0339,1.341 -6.3348,2.0639 -9.2441,3.6551 -3.8579,2.1101 -6.7968,5.6163 -10.5927,7.8382 -2.7177,1.5908 -5.8853,2.417 -9.0316,2.4169z"/>
    <path id="_404633920" class="fil4" d="M164.603 62.5468c-2.2934,0 -4.5993,-0.3703 -6.8386,-0.8939 -5.6686,-1.324 -11.1045,-3.6328 -15.9909,-6.7919 -2.8551,-1.8458 -5.7604,-4.3955 -5.9851,-7.7877 -0.1581,-2.3084 1.0196,-4.5517 2.6762,-6.1699 3.4589,-3.3838 8.8737,-5.227 13.3314,-6.8659 2.1686,-0.7978 4.724,-1.7348 7.1712,-1.7348 0.8869,-0.0001 1.7566,0.1223 2.5889,0.4179 3.8251,1.3551 4.0207,5.2392 6.264,8.0237 0.7287,0.9015 1.6191,1.61 2.5723,2.2497 -0.1374,0.3171 -0.2207,0.6572 -0.2373,1.0035 -0.054,1.12 0.5952,2.2443 1.5899,2.7565 -1.4857,0.5602 -2.4223,2.2573 -1.9853,3.786 0.325,1.1341 1.5442,1.5283 2.7887,1.5283 0.4332,0 0.8657,-0.0474 1.2694,-0.1283 0.5123,1.1833 1.6982,2.0462 2.98,2.1674 0.1087,0.0099 0.2124,0.0149 0.3206,0.0149 0.1627,-0.0001 0.3246,-0.0113 0.4828,-0.0337 -0.0332,0.151 -0.0708,0.3009 -0.1124,0.4499 -0.1829,0.2689 -0.2914,0.5843 -0.3039,0.9061 -0.2494,0.6364 -0.5659,1.2444 -0.9489,1.8056 -1.9021,2.7822 -5.132,4.4638 -8.4533,5.0357 -1.053,0.1811 -2.1143,0.2609 -3.1797,0.2609z"/>
    <path id="_404638288" class="fil1" d="M312.08 37.1976c-1.2857,0 -2.5598,-0.224 -3.746,-0.7179 -2.2517,-0.9399 -4.1164,-2.9284 -4.6158,-5.3193 -1.09,-5.2417 3.0924,-10.5287 8.4408,-14.2285l0.0002 20.2655c-0.0248,0.0001 -0.0543,0.0003 -0.0792,0.0002z"/>
    <path id="_404633848" class="fil3" d="M284.148 28.3717c-3.2009,0 -6.3767,-0.8534 -9.0446,-2.6251 -5.2901,-3.5146 -8.037,-10.6635 -5.981,-16.6729 1.0824,-3.1625 3.3172,-5.8281 5.8978,-7.9486 0.479,-0.3931 0.974,-0.7683 1.4775,-1.1251l29.3889 0c2.0064,1.2712 4.1704,2.372 6.2723,3.4836l0.0002 11.3393c-2.7889,1.1226 -5.7481,1.8511 -8.3869,3.2935 -3.8581,2.1101 -6.7926,5.6166 -10.5885,7.8382 -2.7177,1.5909 -5.8852,2.4172 -9.0357,2.4171z"/>
    <path id="_404641000" class="fil4" d="M299.448 60.6739c-2.2929,0 -4.5991,-0.37 -6.8383,-0.8936 -5.6688,-1.324 -11.1046,-3.6331 -15.991,-6.7922 -2.855,-1.8459 -5.7562,-4.3952 -5.9851,-7.7878 -0.1536,-2.3084 1.0238,-4.5519 2.6762,-6.1698 3.4591,-3.384 8.8737,-5.2267 13.3356,-6.8657 2.1685,-0.7979 4.7197,-1.735 7.1671,-1.735 0.8867,-0.0001 1.7564,0.1225 2.593,0.4179 3.8255,1.3549 4.0165,5.2394 6.2599,8.0235 2.381,2.9516 6.5387,3.8331 8.7197,7.0017 0.3205,0.4621 0.5784,0.9569 0.7741,1.4739l0.0002 5.879c-0.2623,0.7621 -0.6245,1.4896 -1.0782,2.1514 -1.8975,2.7822 -5.1319,4.4643 -8.4533,5.0357 -1.0526,0.1811 -2.1144,0.261 -3.1799,0.261z"/>
    <path id="_404642944" class="fil1" d="M241.749 97.7568c-1.2862,-0.0003 -2.5642,-0.2242 -3.7463,-0.7184 -2.2555,-0.9398 -4.1163,-2.928 -4.6158,-5.3192 -1.985,-9.5271 13.4521,-19.2036 21.664,-19.2285 0.0125,-0.0001 0.025,0 0.0374,0 11.1923,-0.0001 11.5333,15.6779 2.5473,19.9087 -1.8811,0.8865 -3.95,1.3028 -5.8936,2.044 -2.2226,0.8474 -4.2787,2.1172 -6.5596,2.7986 -1.1109,0.3317 -2.2767,0.5148 -3.4334,0.5148z"/>
    <path id="_404643064" class="fil2" d="M259.529 117.888c-0.4663,0 -0.9325,-0.0341 -1.3945,-0.104 -2.6843,-0.4041 -5.1486,-1.8401 -7.0632,-3.7593 -2.2388,-2.2429 -3.8333,-5.4198 -3.2673,-8.5386 1.0782,-5.9376 6.185,-8.7758 11.267,-8.7758 6.1227,0 12.22,4.1184 11.2211,11.8979 -0.6618,5.1443 -5.6314,9.2798 -10.7631,9.2798z"/>
    <path id="_404645680" class="fil1" d="M269.56 93.8328c-0.9987,0 -1.9396,-0.3139 -2.6597,-1.0605 -3.1254,-3.2465 1.7731,-16.0942 6.6636,-16.3214 0.1045,-0.005 0.2081,-0.0075 0.3122,-0.0075 7.2799,-0.0001 3.5711,12.4065 0.3121,15.4232 -1.2316,1.1417 -3.005,1.9662 -4.6282,1.9662z"/>
    <path id="_60555432" class="fil1" d="M239.18 54.9455c-4.7489,-0.0003 -9.6187,-2.0297 -10.6677,-6.4695 -1.9144,-8.1021 15.4582,-23.0272 25.7263,-23.0272 1.328,-0.0001 2.543,0.251 3.5752,0.8001 14.2058,7.5405 -6.0725,26.3646 -15.2584,28.3446 -1.0777,0.233 -2.2225,0.3521 -3.3754,0.352z"/>
    <path id="_60555504" class="fil1" d="M267.158 74.9018c-0.1413,0 -0.2789,-0.0076 -0.4204,-0.0229 -1.9021,-0.2106 -3.2964,-1.8097 -4.8571,-2.9207 -2.514,-1.7909 -5.6813,-2.3827 -8.4284,-3.7945 -2.7466,-1.4114 -5.2526,-4.2945 -4.5118,-7.2924 1.0989,-4.4561 8.5075,-5.8695 12.091,-7.6114 1.2824,-0.624 2.5306,-0.9031 3.7293,-0.9031 4.0335,0 7.4627,3.1627 9.4481,6.9903 1.4695,2.8322 2.4473,6.2544 1.1695,9.1791 -0.7738,1.7746 -2.2766,3.1162 -3.7917,4.3207 -1.2983,1.0317 -2.8011,2.0549 -4.4285,2.0549z"/>
    <path id="_60555648" class="fil1" d="M250.564 160.909c-2.1226,-1.0559 -3.9499,-2.9152 -5.931,-4.3248 -4.4036,-3.1346 -9.9434,-4.1709 -14.7507,-6.6408 -4.8069,-2.4701 -9.1941,-7.515 -7.8997,-12.7619 1.3861,-5.6001 8.4617,-8.4545 14.6633,-10.7478 -0.845,0.7757 -1.4818,1.7768 -1.7815,2.8856 -0.8073,-0.2061 -1.619,-0.3222 -2.4307,-0.3222 -0.8615,0 -1.7189,0.132 -2.5596,0.4274 -1.6231,0.5727 -3.0509,1.7898 -3.6919,3.3888 -0.7448,1.861 -0.3038,4.1381 1.0821,5.5856 0.9909,1.0339 2.4265,1.6054 3.8542,1.6054 0.5702,0 1.1403,-0.0912 1.6815,-0.2805 -1.1028,2.618 -0.0542,5.9173 2.4682,7.2288 0.4872,0.2543 0.9822,0.3675 1.4775,0.3675 1.9981,-0.0001 3.9665,-1.8334 5.1985,-3.7077 0.1624,-0.0112 0.3288,-0.0365 0.487,-0.0774 0.0627,0.0179 0.1206,0.0346 0.179,0.0499 -0.5162,1.3968 0.0581,3.1046 1.3818,3.7943 0.2667,0.1377 0.5369,0.199 0.8032,0.199 1.1197,0 2.2227,-1.0631 2.8803,-2.1127 0.3749,0.1373 0.7741,0.2038 1.1737,0.2038 0.8453,0 1.694,-0.298 2.3308,-0.8544 0.9409,-0.82 1.386,-2.1677 1.1196,-3.3855 0.0545,0.0041 0.1083,0.0063 0.1582,0.0063 1.1905,0 2.2558,-1.0323 2.4514,-2.2197 0.2042,-1.24 -0.5785,-2.5514 -1.7439,-3.0263 -0.3453,-0.1419 -0.72,-0.2094 -1.0946,-0.2094 -0.4784,0 -0.9573,0.1103 -1.3943,0.3151 -0.0164,-0.1132 -0.0376,-0.226 -0.0626,-0.338 0.1001,0.0076 0.1999,0.0112 0.2957,0.0112 2.198,0 4.1663,-1.9074 4.5284,-4.1009 0.3746,-2.2917 -1.0698,-4.7153 -3.2215,-5.5922 -0.6451,-0.2623 -1.3319,-0.3866 -2.0228,-0.3866 -1.615,0 -3.2465,0.6813 -4.3578,1.8713 -1.0405,-1.7294 -2.901,-2.8512 -4.8822,-2.9456 0.7911,-0.3159 1.5275,-0.6319 2.1893,-0.9536 2.2437,-1.0917 4.4327,-1.5804 6.5304,-1.5804 7.0593,0 13.0567,5.5353 16.5362,12.233 2.5723,4.9571 4.2827,10.946 2.0435,16.0638 -0.5823,1.3401 -1.4068,2.5388 -2.3641,3.6381 -0.8197,-0.1611 -1.6523,-0.2714 -2.4889,-0.3289 -0.4244,-0.0291 -0.8574,-0.0444 -1.2861,-0.0444 -2.106,0 -4.2162,0.3704 -6.0892,1.3118 -2.5305,1.272 -4.2745,3.3043 -5.4607,5.755z"/>
    <path id="_60556056" class="fil3" d="M213.816 88.9306c-3.2004,0 -6.3806,-0.8536 -9.0485,-2.6254 -5.2899,-3.5142 -8.037,-10.663 -5.9768,-16.6727 1.0826,-3.1619 3.313,-5.8279 5.8978,-7.9485 4.9279,-4.0447 11.3085,-6.1769 17.6682,-6.1769 0.8077,-0.0001 1.6149,0.0341 2.4182,0.1031 3.4254,0.2947 5.6313,1.0709 8.2369,3.1508 3.284,2.6229 7.3877,4.4339 11.0462,6.4908 1.2491,0.7 2.5723,1.4847 3.155,2.7904 0.6286,1.4121 0.1915,3.1311 -0.7658,4.3464 -0.9571,1.2154 -2.3475,2.0067 -3.7626,2.6317 -3.0339,1.3411 -6.3348,2.0637 -9.2441,3.6552 -3.8579,2.1101 -6.7968,5.6161 -10.5928,7.8381 -2.7174,1.5908 -5.8851,2.417 -9.0317,2.417z"/>
    <path id="_60556224" class="fil4" d="M229.116 121.232c-2.2934,0 -4.5994,-0.37 -6.8385,-0.8931 -5.6686,-1.3245 -11.1046,-3.6328 -15.9911,-6.7922 -2.8548,-1.846 -5.7603,-4.3957 -5.9851,-7.7878 -0.158,-2.3083 1.0198,-4.5521 2.6763,-6.17 3.4588,-3.3838 8.8737,-5.2268 13.3313,-6.8658 2.1687,-0.7979 4.7241,-1.7348 7.1714,-1.7348 0.8868,0 1.7564,0.1224 2.5887,0.4179 3.8252,1.3551 4.0207,5.2389 6.2642,8.0234 2.3807,2.9513 6.5345,3.8328 8.7195,7.0019 1.9149,2.774 1.5942,6.7215 -0.3038,9.5043 -1.9019,2.7827 -5.1318,4.4638 -8.4533,5.0353 -1.0528,0.1815 -2.1143,0.2614 -3.1796,0.2609z"/>
    <path id="_60557112" class="fil1" d="M312.159 127.99c-0.3413,-0.6023 -0.5953,-1.2519 -0.7369,-1.9346 -0.4037,-1.9329 -0.0874,-3.872 0.7367,-5.7354l0.0002 7.67z"/>
    <path id="_60556152" class="fil1" d="M312.159 88.452c-2.7387,-0.9731 -4.9449,-2.8203 -5.6107,-5.6401 -0.7906,-3.3389 1.6981,-7.8365 5.6105,-11.9707l0.0002 17.6108z"/>
    <path id="_60556296" class="fil3" d="M291.852 123.267c-3.2004,0 -6.3807,-0.8532 -9.0445,-2.6254 -5.294,-3.5146 -8.0371,-10.6631 -5.981,-16.6727 1.0823,-3.1621 3.3131,-5.8279 5.8978,-7.9485 4.928,-4.0447 11.3086,-6.177 17.6682,-6.177 0.8079,0 1.615,0.0341 2.4182,0.1032 3.4256,0.2951 5.6356,1.0709 8.2369,3.1507 0.3623,0.2888 0.7325,0.5674 1.1113,0.8379l0.0002 18.7208c-0.229,0.1136 -0.4581,0.2323 -0.6828,0.3559 -3.8582,2.1101 -6.7968,5.616 -10.5926,7.8377 -2.7175,1.5912 -5.8853,2.4174 -9.0317,2.4174z"/>
    <path id="_61558936" class="fil4" d="M285.526 148.638c-0.4036,-0.2455 -0.8075,-0.4972 -1.2029,-0.7544 -2.8553,-1.846 -5.7563,-4.3957 -5.9852,-7.7879 -0.158,-2.3083 1.0238,-4.5521 2.6763,-6.1699 3.4589,-3.3843 8.8736,-5.2268 13.3312,-6.8663 2.1689,-0.7975 4.7241,-1.7343 7.1714,-1.7343 0.8865,-0.0001 1.7564,0.1224 2.5888,0.4178 3.8253,1.3548 4.0207,5.239 6.2641,8.0238 0.5247,0.6497 1.132,1.1992 1.7897,1.6948l0.0002 8.2756c-3.1592,-1.5288 -6.618,-2.39 -10.1641,-2.39 -1.3776,0 -2.772,0.1304 -4.1663,0.4021 -4.7031,0.9162 -8.9986,3.4272 -12.3032,6.8887z"/>
    <path id="_61559104" class="fil3" d="M102.825 72.0194c-2.5306,0 -5.082,-0.7862 -7.134,-2.5546 -1.5774,-1.3582 -2.8011,-3.0759 -4.2744,-4.5492 -1.6773,-1.6841 -3.6752,-3.0442 -5.2277,-4.8469 -1.5939,-1.8513 -2.6846,-4.1979 -2.7428,-6.639 -0.0624,-2.4415 0.9947,-4.9537 2.9717,-6.3834 1.6108,-1.163 3.5254,-1.6657 5.5773,-1.6657 7.9997,-0.0001 18.1344,7.6437 20.819,13.6047 3.3505,7.4448 -3.2424,13.0346 -9.9891,13.0341z"/>
    <path id="_61560328" class="fil5" d="M83.2917 88.0287c-4.6545,0 -9.3178,-3.2132 -10.5768,-7.7565 -0.725,-2.6139 -0.4184,-5.4483 0.5519,-7.9814 1.1338,-2.9601 3.3855,-5.7088 6.4637,-6.4637 0.907,-0.2228 1.7839,-0.3268 2.6289,-0.3268 11.192,0 16.4737,18.2838 3.6918,22.1289 -0.8989,0.2712 -1.8313,0.3995 -2.7595,0.3995z"/>
    <path id="_61559848" class="fil3" d="M107.083 85.0049c-1.6648,0 -3.1676,-0.2223 -4.154,-0.6447 -2.5014,-1.0677 -4.8197,-3.7651 -3.8,-6.2835 0.9117,-2.2527 5.3192,-3.5133 9.5313,-3.5133 3.6086,0 7.0715,0.9227 8.0871,2.9368 2.6387,5.2422 -4.3496,7.5047 -9.6644,7.5047z"/>
    <path id="_61560040" class="fil3" d="M124.667 75.9273c-1.9146,-0.0004 -3.7335,-0.8179 -5.4358,-1.7019 -1.5981,-0.8299 -3.284,-1.8834 -3.8334,-3.5973 -0.5826,-1.8239 0.3081,-3.7472 0.6868,-5.6251 0.6078,-3.0275 -0.1415,-6.1591 0.025,-9.2429 0.1708,-3.0842 1.7773,-6.5499 4.8198,-7.0961 0.2748,-0.0492 0.5452,-0.0728 0.8198,-0.0728 4.2165,0 8.1953,5.6035 11.0589,8.0071 4.7699,4.0027 3.3006,10.1377 -0.1832,14.5164 -1.9853,2.498 -4.7115,4.786 -7.9038,4.8122 -0.0167,0 -0.0333,0.0004 -0.0541,0.0004z"/>
    <path id="_61560424" class="fil5" d="M110.641 51.2399c-0.4205,0 -0.8409,-0.0523 -1.2446,-0.1535 -1.5024,-0.377 -2.7928,-1.3256 -3.9374,-2.362 -2.464,-2.2231 -4.4701,-4.9421 -7.1089,-6.9503 -3.5003,-2.6626 -7.8997,-3.9119 -11.475,-6.4716 -0.8865,-0.6333 -1.7106,-1.3523 -2.4598,-2.1414 0.7035,0.1389 1.4192,0.2094 2.1351,0.2094 1.4319,-0.0001 2.8635,-0.2805 4.1747,-0.8559 3.4547,-1.5151 5.9559,-5.0111 6.2765,-8.7709 1.5733,0.8764 3.3296,1.2776 5.1069,1.2776 3.438,-0.0001 6.9549,-1.496 9.4231,-3.9532 0.6494,-0.6472 1.232,-1.3463 1.7564,-2.0883 1.053,1.7282 1.9229,3.5663 2.5846,5.4745 1.1322,3.2499 1.3237,5.5816 0.4871,8.8068 -1.0572,4.0676 -1.0364,8.5526 -1.4235,12.7342 -0.1288,1.4234 -0.3039,2.9534 -1.2611,4.0173 -0.7533,0.8407 -1.8897,1.2275 -3.0341,1.2273z"/>
    <path id="_60195184" class="fil2" d="M68.9104 63.7875c-0.537,0 -1.0736,-0.0465 -1.5992,-0.1418 -3.3159,-0.5994 -6.1692,-2.8648 -8.0459,-5.6635 -1.5358,-2.2908 -2.4806,-4.9171 -3.1232,-7.6092 1.8555,0.5776 3.8037,0.8766 5.7404,0.8766 3.6054,0 7.1701,-1.0347 10.0241,-3.2299 4.561,-3.507 6.7039,-9.2312 7.7923,-14.9469 1.8948,2.021 3.8009,4.4132 4.0214,7.1665 0.3248,4.0449 -3.1449,5.8052 -4.7714,8.9905 -1.7239,3.3766 -0.8333,7.5317 -2.8357,10.8182 -1.4752,2.421 -4.3523,3.74 -7.2028,3.7395z"/>
    <path id="_60196360" class="fil1" d="M104.011 154.155c0.075,-0.1673 0.1373,-0.3392 0.1914,-0.5149 0.5161,-1.718 -0.0541,-3.7146 -1.4027,-4.898 -0.8573,-0.7517 -2.002,-1.1495 -3.1424,-1.1495 -0.6493,0 -1.3028,0.1306 -1.898,0.3995 0.7827,-2.4219 -0.412,-5.283 -2.7636,-6.2565 -0.3703,-0.1532 -0.7409,-0.2226 -1.103,-0.2226 -1.9394,-0.0001 -3.7127,2.0011 -4.6907,3.9095 -0.4743,-0.1278 -0.9615,-0.1899 -1.4526,-0.1899 -0.5909,0 -1.1862,0.0907 -1.7523,0.2643 -0.957,-0.819 -1.9021,-1.6482 -2.7219,-2.6013 -1.5941,-1.8509 -2.6829,-4.1979 -2.7437,-6.6394 -0.0615,-2.4411 0.9955,-4.953 2.9725,-6.383 1.611,-1.1635 3.5253,-1.6657 5.5773,-1.6657 7.9997,-0.0001 18.1345,7.6433 20.819,13.6047 2.6556,5.8969 -0.9281,10.6297 -5.8893,12.3428z"/>
    <path id="_60196072" class="fil2" d="M80.3788 170.855c-4.6546,0 -9.3184,-3.2131 -10.5778,-7.7564 -0.7246,-2.6139 -0.4179,-5.4483 0.5522,-7.981 1.134,-2.9605 3.3852,-5.7092 6.4639,-6.4646 0.907,-0.2223 1.7842,-0.3263 2.6287,-0.3263 1.0283,0 2.0062,0.1544 2.926,0.4374 -0.5202,1.2516 -0.616,2.6829 -0.2123,3.9778 -2.077,0.0188 -3.8233,1.9512 -3.9805,4.0244 -0.1573,2.074 1.321,4.1234 3.3063,4.7373 0.4537,0.1403 0.924,0.2069 1.3943,0.2069 1.5942,-0.0001 3.1966,-0.7633 4.1829,-2.029 0.8367,1.1516 2.102,1.927 3.4671,2.1696 -0.3786,3.7434 -2.6346,7.1739 -7.3919,8.6048 -0.899,0.2714 -1.8314,0.3991 -2.7589,0.3991z"/>
    <path id="_60195664" class="fil1" d="M104.169 167.831c-1.6648,0 -3.1673,-0.2221 -4.1538,-0.6443 -1.1694,-0.4989 -2.2974,-1.3543 -3.0634,-2.3806 0.4872,0.3387 1.0698,0.5285 1.665,0.5285 0.204,0 0.412,-0.0225 0.616,-0.0699 1.1196,-0.2593 2.0435,-1.2312 2.2433,-2.3637 0.2708,0.0445 0.5412,0.0687 0.8116,0.0687 0.5454,0 1.0822,-0.0995 1.59,-0.3305 0.7617,-0.3451 1.3985,-0.993 1.6399,-1.7922 0.283,-0.9294 -0.0292,-2.0103 -0.7575,-2.6505 -0.466,-0.407 -1.0821,-0.6222 -1.6982,-0.6222 -0.0499,0 -0.1,0.0017 -0.1499,0.0042 0.9283,-0.1249 1.8855,-0.189 2.8344,-0.189 3.6089,0 7.0715,0.9232 8.0871,2.9373 2.639,5.2422 -4.3494,7.5047 -9.6645,7.5042zm-2.1351 -10.0407c0.0084,-0.0257 0.0166,-0.0516 0.0208,-0.0774 0.1374,-0.0242 0.2705,-0.0466 0.4037,-0.0678 -0.1455,0.0349 -0.2872,0.0833 -0.4245,0.1452z"/>
    <path id="_60195832" class="fil1" d="M121.754 158.753c-1.9146,0 -3.7335,-0.8175 -5.4359,-1.7019 -1.5982,-0.8295 -3.2839,-1.8826 -3.8333,-3.597 -0.5825,-1.8238 0.308,-3.7476 0.6867,-5.6247 0.6078,-3.028 -0.1414,-6.1594 0.025,-9.2433 0.1706,-3.0841 1.7772,-6.5498 4.8197,-7.096 0.2749,-0.0495 0.5453,-0.0728 0.82,-0.0728 4.2163,0 8.1952,5.6035 11.0588,8.0071 4.7699,4.0028 3.3005,10.1377 -0.1831,14.5162 -1.9852,2.4982 -4.7116,4.7861 -7.904,4.8124 -0.0164,0 -0.0333,0 -0.0539,0z"/>
    <path id="_409752512" class="fil3" d="M108.976 134.691c-0.4203,0 -0.8408,-0.0524 -1.2446,-0.154 -1.5025,-0.3767 -2.7928,-1.3251 -3.9374,-2.3615 -2.4638,-2.2227 -4.4702,-4.9418 -7.109,-6.9504 -3.5001,-2.6625 -7.8997,-3.9119 -11.475,-6.4717 -5.1663,-3.6963 -8.2364,-10.3283 -7.1859,-16.5923 1.0516,-6.2645 6.4576,-11.6878 12.784,-12.2608 0.4163,-0.0375 0.8325,-0.0558 1.2445,-0.0558 2.9136,0 5.802,0.8919 8.42,2.1996 6.4264,3.212 11.3876,9.0985 13.7351,15.8611 1.1323,3.2502 1.3235,5.5819 0.4869,8.8067 -1.057,4.0676 -1.0364,8.5527 -1.4235,12.7344 -0.1289,1.4235 -0.3038,2.9535 -1.2611,4.0173 -0.7532,0.8408 -1.8896,1.2275 -3.034,1.2274z"/>
    <path id="_409751888" class="fil4" d="M65.9973 146.614c-0.5374,0 -1.0739,-0.0469 -1.5997,-0.1419 -3.3158,-0.5994 -6.169,-2.8647 -8.0457,-5.6637 -1.8763,-2.7983 -2.8707,-6.098 -3.5095,-9.4065 -1.1021,-5.7138 -1.2112,-11.6186 -0.3201,-17.369 0.5204,-3.3605 1.6648,-7.0502 4.669,-8.6418 0.9991,-0.5295 2.1135,-0.7617 3.2436,-0.7617 1.1823,0 2.3812,0.2542 3.4812,0.6884 4.5001,1.7776 8.3921,5.971 11.7073,9.3732 2.1956,2.2537 4.9179,5.0511 5.1835,8.3749 0.323,4.0453 -3.1449,5.805 -4.7716,8.9902 -1.7237,3.3764 -0.8331,7.5319 -2.836,10.8179 -1.4745,2.4211 -4.3515,3.74 -7.202,3.74z"/>
    <path id="_409752152" class="fil1" d="M29.3668 182.315c-2.5294,0 -5.0805,-0.7862 -7.1361,-2.5551 -1.577,-1.3577 -2.8008,-3.0754 -4.2708,-4.5489 -1.6801,-1.684 -3.6784,-3.0437 -5.2301,-4.8472 -1.5936,-1.8509 -2.6821,-4.1975 -2.7433,-6.639 -0.0612,-2.4416 0.9939,-4.9534 2.9738,-6.3831 1.6109,-1.1628 3.5228,-1.6657 5.5756,-1.6657 8.0019,0 18.1337,7.6434 20.8182,13.6049 3.3532,7.4447 -3.2414,13.0345 -9.9873,13.0341z"/>
    <path id="_409752272" class="fil2" d="M9.8338 198.323c-3.9858,0 -7.9779,-2.3556 -9.8338,-5.8854l0 -10.3248c1.1854,-2.7753 3.3587,-5.2762 6.2726,-5.9913 0.9067,-0.2223 1.7844,-0.3264 2.6292,-0.3264 11.1904,0 16.475,18.2839 3.6915,22.1288 -0.9015,0.2714 -1.8302,0.3993 -2.7595,0.3991z"/>
    <path id="_409752560" class="fil1" d="M33.6229 195.3c-1.6653,0 -3.1661,-0.2223 -4.1542,-0.6443 -2.4981,-1.068 -4.8174,-3.7647 -3.7993,-6.2836 0.9107,-2.2525 5.3184,-3.5136 9.5338,-3.5136 3.6057,0 7.0706,0.9227 8.085,2.9368 2.6406,5.2421 -4.3507,7.5047 -9.6653,7.5047z"/>
    <path id="_409752032" class="fil1" d="M51.21 186.222c-1.9167,0 -3.7356,-0.8178 -5.4379,-1.7018 -1.5969,-0.8295 -3.2831,-1.8829 -3.8321,-3.5965 -0.5839,-1.8247 0.3081,-3.7475 0.686,-5.6256 0.6095,-3.0275 -0.1416,-6.1591 0.0266,-9.2428 0.1682,-3.0837 1.7777,-6.55 4.8168,-7.096 0.275,-0.0492 0.5486,-0.0728 0.8216,-0.0728 4.2161,-0.0001 8.1941,5.6034 11.0596,8.0074 4.7717,4.002 3.2994,10.137 -0.1823,14.5156 -1.9861,2.4985 -4.7118,4.7864 -7.9035,4.8125 -0.0182,0 -0.0365,0 -0.0548,0z"/>
    <path id="_409752008" class="fil3" d="M37.1832 161.535c-0.4207,0 -0.8421,-0.0524 -1.2458,-0.154 -1.4995,-0.3767 -2.7898,-1.3251 -3.9378,-2.362 -2.4618,-2.2226 -4.4676,-4.9416 -7.108,-6.9499 -3.5002,-2.6625 -7.8986,-3.9121 -11.4755,-6.4713 -5.1652,-3.6964 -8.2352,-10.3287 -7.1847,-16.5932 1.0507,-6.2645 6.458,-11.6873 12.7836,-12.2603 0.4155,-0.038 0.8312,-0.0558 1.2466,-0.0558 2.9119,0 5.8003,0.8923 8.4171,2.1996 6.4267,3.2115 11.3884,9.0981 13.7379,15.8611 1.1288,3.2497 1.3207,5.5814 0.4837,8.8067 -1.0562,4.068 -1.036,8.5527 -1.421,12.7344 -0.1306,1.4235 -0.3064,2.9535 -1.2611,4.0169 -0.7545,0.8412 -1.8922,1.2278 -3.035,1.2278z"/>
    <path id="_409752056" class="fil4" d="M-0 172.889l0 -35.7347c1.8233,1.6199 3.5153,3.4004 5.0785,5.005 2.1961,2.2537 4.9183,5.0515 5.1839,8.3754 0.3232,4.0448 -3.1453,5.8049 -4.7714,8.9902 -1.7242,3.3759 -0.8337,7.5314 -2.8362,10.8182 -0.6519,1.0701 -1.5782,1.925 -2.6548,2.5459z"/>
    <path id="_409752104" class="fil1" d="M26.2456 91.793c-2.5295,0 -5.0809,-0.7863 -7.1361,-2.5552 -1.5779,-1.3577 -2.8011,-3.0759 -4.2712,-4.5492 -1.68,-1.6836 -3.6785,-3.0438 -5.2306,-4.8463 -1.5928,-1.8514 -2.6816,-4.1981 -2.7423,-6.6395 -0.0616,-2.4416 0.9938,-4.9534 2.9738,-6.383 1.6109,-1.1634 3.5224,-1.6662 5.5751,-1.6662 8.0014,0 18.1336,7.6437 20.8183,13.6048 3.3533,7.4452 -3.2411,13.0349 -9.987,13.0346z"/>
    <path id="_409752296" class="fil2" d="M6.7122 107.802c-2.3889,0 -4.7801,-0.8461 -6.7122,-2.2844l0 -18.2774c0.919,-0.7712 1.9744,-1.351 3.1511,-1.6394 0.9069,-0.2227 1.7847,-0.3267 2.6292,-0.3267 11.1909,0 16.475,18.2838 3.6918,22.1288 -0.9019,0.2713 -1.8305,0.3996 -2.7599,0.3991z"/>
    <path id="_409752128" class="fil1" d="M30.5017 104.778c-1.6651,0 -3.1666,-0.2221 -4.1547,-0.6443 -2.498,-1.0679 -4.8169,-3.765 -3.7992,-6.2836 0.9109,-2.2525 5.3184,-3.5136 9.5343,-3.5136 3.6053,0 7.0701,0.9228 8.0849,2.9368 2.6404,5.2422 -4.3507,7.5047 -9.6653,7.5047z"/>
    <path id="_409753088" class="fil1" d="M48.0885 95.7003c-1.9162,0 -3.7353,-0.8174 -5.438,-1.7019 -1.5969,-0.8295 -3.2831,-1.8829 -3.8317,-3.5969 -0.5842,-1.8242 0.3076,-3.7476 0.686,-5.6251 0.6086,-3.0276 -0.1415,-6.1592 0.0266,-9.2428 0.1684,-3.0842 1.7768,-6.55 4.8169,-7.0961 0.2748,-0.0495 0.5485,-0.0727 0.8216,-0.0727 4.2158,-0.0002 8.194,5.6034 11.0595,8.007 4.7713,4.0023 3.2994,10.1374 -0.1823,14.5163 -1.986,2.4981 -4.7123,4.786 -7.9038,4.8118 -0.0183,0.0004 -0.0366,0.0004 -0.0548,0.0004z"/>
    <path id="_409753328" class="fil3" d="M34.0622 71.0134c-0.421,0 -0.8427,-0.0523 -1.2464,-0.1539 -1.4992,-0.3767 -2.7899,-1.3257 -3.9374,-2.3615 -2.4617,-2.2232 -4.468,-4.9422 -7.108,-6.9505 -3.5008,-2.6629 -7.8989,-3.9124 -11.4759,-6.4716 -2.6695,-1.9105 -4.7793,-4.6051 -6.0501,-7.628 2.6017,-1.2491 5.0511,-3.1528 6.4784,-4.5584 3.4187,2.501 7.6588,3.8258 11.8904,3.8258 1.8049,0 3.6073,-0.2405 5.3446,-0.7337 3.6423,-1.034 6.947,-3.1628 9.4667,-5.9852 0.7373,1.3576 1.3648,2.7741 1.8709,4.2313 1.1285,3.2497 1.3198,5.5814 0.4832,8.8066 -1.0558,4.068 -1.0355,8.5524 -1.4205,12.7345 -0.1309,1.423 -0.3067,2.9534 -1.2616,4.0173 -0.7545,0.8406 -1.8917,1.2273 -3.0343,1.2273z"/>
    <path id="_409752656" class="fil4" d="M-0 78.9314l0 -29.3017c0.6738,0.6834 1.3255,1.3598 1.9573,2.0078 2.1955,2.2537 4.918,5.0515 5.1835,8.3754 0.3232,4.0448 -3.1449,5.8046 -4.7714,8.9903 -1.5715,3.0782 -0.9703,6.8038 -2.3694,9.9282z"/>
    <path id="_409752680" class="fil1" d="M113.072 208.107l-32.7805 0c-0.9906,-5.8366 4.4405,-12.6574 11.2664,-12.6574 0.2581,0 0.5161,0.0099 0.7782,0.0295 2.073,0.1577 4.079,0.8153 6.1351,1.13 2.3516,0.3592 4.7698,0.2693 7.0881,0.8008 2.3808,0.5456 4.6491,1.7897 6.1433,3.7188 1.4984,1.9296 2.1393,4.578 1.3902,6.9034 -0.0082,0.025 -0.0166,0.0504 -0.0208,0.0749z"/>
    <path id="_409753112" class="fil2" d="M99.395 192.715c-8.1827,-0.0005 -16.453,-9.0777 -10.0724,-17.5776 2.0062,-2.673 5.3608,-4.0992 8.6864,-4.0992 2.3017,-0.0001 4.5949,0.6846 6.4138,2.1138 2.1354,1.6749 3.5711,4.1388 4.2911,6.7539 0.841,3.0559 0.6577,6.6042 -1.3734,9.0381 -2.2143,2.653 -5.0737,3.771 -7.9455,3.771z"/>
    <path id="_409753016" class="fil1" d="M72.2439 201.849c-0.6015,0 -1.1527,-0.1111 -1.6289,-0.3525 -6.8754,-3.4871 2.6747,-12.6883 7.0586,-13.7193 0.5626,-0.1319 1.1617,-0.2002 1.7635,-0.2002 2.2273,0 4.4913,0.9344 5.0241,3.0063 0.995,3.8908 -7.3087,11.2666 -12.2173,11.2657z"/>
    <path id="_409752704" class="fil1" d="M77.273 208.107l-12.8581 0c0.2205,-0.2185 0.4568,-0.4237 0.7103,-0.6135 1.5501,-1.1613 3.5187,-1.5866 5.432,-1.8871 0.7185,-0.1128 1.4696,-0.2044 2.2067,-0.2044 1.0874,0 2.1427,0.1998 3.0118,0.8283 0.668,0.4827 1.1267,1.1429 1.4973,1.8767z"/>
    <path id="_409752752" class="fil4" d="M149.395 208.107l-31.5948 0c-0.1375,-2.0154 0.3619,-4.1289 0.0123,-6.2628 -0.6117,-3.7405 -3.7959,-6.5583 -4.1288,-10.392 -0.2955,-3.3563 1.9271,-6.6336 4.953,-8.117 1.5358,-0.753 3.2297,-1.0897 4.9403,-1.0897 1.6567,0 3.3339,0.3173 4.8947,0.8787 3.1717,1.1408 5.927,3.2074 8.4034,5.4932 4.2788,3.9469 7.8664,8.6365 10.5594,13.7958 0.9197,1.7618 1.7355,3.7413 1.9605,5.6938z"/>
    <path id="_409753232" class="fil3" d="M170.301 140.974c-8.3533,-0.0003 -18.3343,-10.4448 -20.0283,-17.3431 -1.7314,-7.0353 3.979,-11.2145 9.9184,-11.2145 3.2676,0 6.6053,1.2636 8.8196,4.011 1.3072,1.6212 2.1975,3.5325 3.3754,5.2481 1.3486,1.9604 3.0675,3.6598 4.2662,5.7137 1.2324,2.1094 1.8771,4.6142 1.4942,7.0266 -0.3827,2.412 -1.8771,4.6915 -4.083,5.7384 -1.1862,0.5643 -2.4557,0.8199 -3.7625,0.8198z"/>
    <path id="_409752848" class="fil5" d="M183.358 122.917c-12.6986,-0.0025 -15.5997,-21.0588 -1.5774,-22.6071 0.3413,-0.0379 0.6784,-0.0558 1.0197,-0.0558 5.2696,0 10.2929,4.4144 10.7632,9.7074 0.2376,2.702 -0.5784,5.434 -1.9895,7.7494 -1.6522,2.7054 -4.3619,5.0012 -7.5292,5.1861 -0.2331,0.0132 -0.4578,0.02 -0.6868,0.02z"/>
    <path id="_409753184" class="fil3" d="M160.941 109.414c-4.6992,0 -10.3265,-1.7765 -11.1839,-4.7045 -1.2902,-4.4118 2.8968,-5.9565 7.2879,-5.9565 2.9679,0 6.031,0.7084 7.546,1.7141 2.2643,1.5028 4.0538,4.5754 2.5971,6.8679 -0.9073,1.4317 -3.4087,2.0793 -6.2471,2.079z"/>
    <path id="_409753592" class="fil3" d="M140.442 132.31c-0.0084,0 -0.0168,0 -0.021,0 -4.5907,-0.0204 -7.7124,-6.8859 -10.2472,-9.9559 -3.9663,-4.8002 -1.4067,-10.5671 2.8095,-14.2427 2.102,-1.8318 4.7282,-3.4035 7.4544,-3.4035 0.3955,0 0.7907,0.033 1.1903,0.1029 1.9065,0.3354 3.5628,1.4796 5.0945,2.6688 1.4194,1.105 2.8844,2.4469 3.1174,4.2316 0.2415,1.9 -0.9822,3.6297 -1.694,5.4083 -1.1485,2.8668 -0.978,6.0824 -1.7022,9.0851 -0.7242,2.9951 -2.9261,6.1054 -6.0017,6.1054z"/>
    <path id="_409753640" class="fil5" d="M161.898 179.035c-0.3825,0 -0.7616,-0.017 -1.1445,-0.0524 -3.3252,-0.3064 -6.443,-1.8481 -9.1151,-3.8592 -5.7354,-4.3232 -9.548,-11.0109 -10.6343,-18.0878 -0.5201,-3.4009 -0.2872,-5.7283 1.1196,-8.7488 1.7773,-3.8088 2.568,-8.2227 3.7043,-12.2658 0.3873,-1.3761 0.8366,-2.8489 1.9687,-3.7221 0.6619,-0.5112 1.4859,-0.7393 2.3266,-0.7393 0.7077,0 1.4319,0.164 2.077,0.4587 1.4069,0.6427 2.5056,1.8093 3.4462,3.0363 2.0187,2.6325 3.4962,5.6701 5.7312,8.1233 2.9594,3.2531 7.059,5.2783 10.1099,8.4437 4.4123,4.5712 6.2307,11.6494 4.0622,17.62 -2.0394,5.6105 -7.7248,9.7934 -13.6518,9.7934z"/>
    <path id="_409753928" class="fil2" d="M193.563 169.29c-1.6314,0 -3.2842,-0.564 -4.6826,-1.438 -4.1035,-2.563 -7.1714,-7.3924 -9.8143,-11.3385 -1.7521,-2.6143 -3.9208,-5.859 -3.5795,-9.1758 0.4125,-4.0365 4.1413,-5.1391 6.3182,-7.9772 2.3099,-3.008 2.185,-7.2554 4.749,-10.1248 1.5153,-1.6932 3.7833,-2.5277 6.0684,-2.5277 1.1032,0 2.2141,0.1956 3.2422,0.584 3.1507,1.1903 5.5481,3.9353 6.8841,7.0277 1.3404,3.0925 1.719,6.5171 1.7482,9.8868 0.0502,5.819 -0.9115,11.6456 -2.8303,17.1396 -1.1234,3.2103 -2.9177,6.632 -6.1599,7.6529 -0.6325,0.1994 -1.2862,0.291 -1.9435,0.291z"/>
    <path id="_409754144" class="fil6" d="M10.723 42.8894c4.8767,3.5674 11.4228,4.7421 17.2348,3.0922 5.8128,-1.65 10.7657,-6.0886 13.0404,-11.6861 2.1553,6.2205 6.3522,11.9138 12.2229,14.8934 5.8698,2.9797 13.467,2.8445 18.6855,-1.1692 5.0634,-3.8932 7.1467,-10.5193 8.1154,-16.8326 2.9825,2.3133 7.2486,2.8426 10.7033,1.3275 3.4547,-1.5151 5.9559,-5.0111 6.2765,-8.7709 4.6159,2.5692 10.7841,1.0538 14.53,-2.6756 3.7459,-3.7293 5.3275,-9.2009 5.3983,-14.4856 0.0279,-2.209 -0.1816,-4.4028 -0.5282,-6.5825l-116.402 0 0 48.7185c3.8768,-0.3001 8.5184,-3.6582 10.723,-5.8291z"/>
    <path id="_409754240" class="fil7" d="M2.467 42.6036c-0.1983,0 -0.3961,-0.005 -0.5946,-0.015 -0.6302,-0.0325 -1.2552,-0.1153 -1.8724,-0.2406l0 -11.1232c0.8494,0.2084 1.7113,0.3698 2.585,0.4783 0.7709,0.0958 1.5529,0.1438 2.3358,0.1438 5.0267,-0.0001 10.1281,-1.9783 13.0778,-5.9996 -0.5426,4.241 -2.1119,8.284 -4.8909,11.5331 -2.6507,3.0977 -6.5799,5.2232 -10.6407,5.2232z"/>
    <path id="_409754384" class="fil7" d="M96.594 23.4651c-2.027,0 -4.1623,-0.5521 -6.0186,-1.2428 2.9177,-1.2413 5.7353,-2.9653 7.5918,-5.5351 1.8606,-2.5697 2.6013,-6.1087 1.2652,-8.9847 1.9022,1.386 3.4338,3.2146 4.262,5.4162 0.8325,2.2015 0.7742,4.7975 -0.4661,6.7981 -0.5327,0.8597 -1.2612,1.5874 -2.0686,2.1945 -1.3025,0.9795 -2.8968,1.3538 -4.5657,1.3538z"/>
    <path id="_409754600" class="fil0" d="M40.7376 34.9057c0.0903,-0.2017 0.1773,-0.4052 0.2606,-0.6102 0.0654,0.1882 0.1322,0.376 0.2014,0.5634 -0.1539,0.0179 -0.3076,0.0336 -0.462,0.0468z"/>
    <path id="_409754360" class="fil7" d="M39.3921 34.9629c-3.6082,0 -7.2343,-1.2073 -10.3904,-3.0249 -4.1495,-2.3896 -7.7034,-5.4529 -11.1334,-8.794 3.6616,1.0896 7.5202,1.8889 11.3198,1.8888 2.412,-0.0003 4.801,-0.3225 7.099,-1.0973 5.9182,-1.9954 10.7807,-7.3514 10.1867,-13.5683 3.1454,1.2243 11.3564,4.8279 15.4374,4.8278 0.3477,-0.0001 0.6651,-0.0262 0.9474,-0.0823 8.6452,-1.7168 12.8367,-8.4036 12.9841,-11.4188 3.0036,1.7983 5.2197,15.9183 -6.5699,21.9484 -1.2773,0.6531 -2.7233,0.9344 -4.247,0.9344 -4.6732,-0.0001 -10.0766,-2.6446 -13.5744,-5.3124 -0.4548,4.7666 -4.0077,12.2448 -8.6736,13.3216 -0.5226,0.1205 -1.0497,0.2109 -1.5782,0.273 -0.0689,-0.1874 -0.1362,-0.3751 -0.2014,-0.5634 -0.0831,0.2048 -0.1703,0.4085 -0.2606,0.6102 -0.4474,0.0386 -0.8966,0.0574 -1.3455,0.0572z"/>
    <path id="_409754672" class="fil6" d="M262.938 10.4717c2.1103,3.6742 5.7186,6.4564 9.8099,7.5598 4.0917,1.1032 8.6115,0.5142 12.2825,-1.601 0.0587,5.1379 4.9114,9.8038 10.0141,10.4243 5.0989,0.6203 10.2971,-2.3555 12.8527,-6.8136 0.3751,2.2391 2.123,4.0897 4.2622,5.065l0 -25.1062 -56.9034 0c-2.0001,3.3627 3.7467,10.5599 7.682,10.4717z"/>
    <path id="_409754168" class="fil6" d="M297.829 141.749c-9.8728,1.9234 -17.9433,10.8745 -18.8381,20.8952 -3.5587,-5.0295 -9.4439,-8.3364 -15.5914,-8.7576 -2.5179,-0.1722 -5.1195,0.1337 -7.3753,1.2674 -7.2128,3.6249 -8.0163,13.4217 -7.8457,21.4925 -6.763,-6.6361 -15.9451,-10.7517 -25.4014,-11.3838 -3.987,-0.2669 -8.1911,0.124 -11.5749,2.2546 -6.3179,3.9773 -7.7707,12.396 -8.624,19.8113 -2.1351,-2.4233 -5.6813,-3.5011 -8.7987,-2.6746 -3.1212,0.827 -5.6689,3.5187 -6.3224,6.6803 -6.8716,-3.3636 -15.4123,-1.4556 -21.6722,2.9442 -5.0974,3.5861 -8.9652,8.5785 -12.3937,13.8283l158.768 0 0 -64.3701c-4.3902,-2.1229 -9.3495,-2.9578 -14.3301,-1.9877z"/>
    <path id="_409755560" class="fil7" d="M274.575 180.251c-1.1944,-3.1278 -1.6065,-6.4986 -0.8949,-9.7701 0.7161,-3.2714 2.797,-6.3248 5.827,-7.754 1.303,-0.6144 2.7346,-0.9191 4.1705,-1.0178 0.1958,-0.0133 0.3954,-0.0199 0.591,-0.0199 4.8865,0 9.1817,4.1222 12.1327,8.0891 -1.9391,-0.3396 -3.9249,-0.5548 -5.8937,-0.5548 -2.5554,0 -5.086,0.3609 -7.4627,1.2791 -4.2117,1.6278 -7.8372,5.2788 -8.4699,9.7484z"/>
    <path id="_409755176" class="fil7" d="M216.414 205.08c-2.8343,-2.0506 -3.8252,-16.3092 8.4406,-21.2992 1.0365,-0.4217 2.1518,-0.6089 3.3131,-0.6089 4.9029,0 10.576,3.3355 14.0637,6.5083 0.8661,-4.7094 5.0487,-11.8533 9.7895,-12.5238 0.6869,-0.0967 1.3693,-0.1424 2.0519,-0.1424 4.0622,0 8.0828,1.6258 11.4459,3.9695 3.929,2.7387 7.2045,6.097 10.3345,9.7214 -4.237,-1.6707 -8.7904,-2.9547 -13.298,-2.9547 -1.673,0 -3.3422,0.1773 -4.9862,0.5769 -6.0684,1.4771 -11.3753,6.3939 -11.3211,12.6392 -3.1546,-1.5559 -11.5832,-6.1654 -15.4622,-6.1654 -0.1579,0 -0.3081,0.0079 -0.4496,0.0234 -8.7613,0.9642 -13.5144,7.2644 -13.9221,10.2557z"/>
    <path id="_409755032" class="fil7" d="M276.328 208.107l-8.058 0c0.1125,-3.0038 0.8154,-6.0185 2.4554,-8.5262 1.1196,-1.7172 2.6387,-3.1415 4.2537,-4.4052 2.5265,-1.9757 5.5314,-3.5586 8.7363,-3.6735 1.9895,-6.1932 5.2609,-12.2021 10.4635,-16.107 3.2677,-2.451 7.3962,-3.9148 11.4418,-3.9148 2.2643,-0.0001 4.4951,0.4569 6.5387,1.4537l0.0002 0.2456c-5.823,0.9665 -10.8758,6.0268 -14.4844,10.7029 -3.6875,4.7757 -5.7188,10.9182 -6.2182,16.9308 -5.0151,0.1319 -9.856,2.3828 -13.5602,5.7632 -0.541,0.4925 -1.0655,1.0031 -1.5688,1.5305z"/>
    <path id="_409755464" class="fil6" d="M0.3458 103.555c6.7785,2.0108 13.8328,4.5771 18.2996,10.0578 1.8739,2.2988 3.1907,5.0037 4.2412,7.7774 1.6366,4.3235 2.6684,8.9365 2.4341,13.554 -0.2342,4.6174 -1.8073,9.2474 -4.8831,12.699 3.0076,0.1537 6.4155,0.5844 9.2109,1.7049 2.795,1.1213 5.3304,3.2435 6.2607,6.1075 0.9266,2.8519 0.1281,6.0597 -1.5297,8.5582 -1.6577,2.498 -4.0876,4.3827 -6.6111,6.0026 5.0089,4.3711 7.111,12.0697 6.4709,18.6872 5.7838,-2.6725 12.9916,-0.0416 17.5022,4.4581 4.0183,4.0078 6.2679,9.4183 7.7042,14.9453l-59.4457 0 0 -104.338c0.1186,-0.0711 0.2344,-0.1425 0.3458,-0.2143z"/>
    <path id="_409754216" class="fil8" d="M93.98 165.215c-0.2538,0 -0.5078,-0.0362 -0.7533,-0.1119 -1.0737,-0.3325 -1.8771,-1.4418 -1.7898,-2.5634 0.0168,-0.2078 0.0626,-0.4125 0.1291,-0.6089 0.3413,-0.0079 0.6825,-0.0501 1.0197,-0.1278 2.0728,-0.4791 3.7751,-2.2747 4.1413,-4.3682 0.5038,0.0824 1.0073,0.1273 1.5026,0.1273 1.0116,0 2.0019,-0.1844 2.9426,-0.611 0.3289,-0.1485 0.641,-0.327 0.9365,-0.5327 0.0833,0.4258 0.0708,0.8711 -0.0541,1.2944 -2.8219,0.5086 -5.1985,1.6033 -5.8395,3.1903 -0.541,1.3415 -0.1374,2.7333 0.7366,3.9029 -0.2704,-0.1869 -0.5119,-0.4187 -0.7075,-0.6893 -0.5327,0.6847 -1.4026,1.0983 -2.2642,1.0983zm8.4784 -7.57c0.1499,-0.0358 0.2996,-0.0578 0.4535,-0.0666 -0.1496,0.0203 -0.3038,0.0428 -0.4535,0.0666z"/>
    <path id="_409754552" class="fil9" d="M98.6168 165.334c-0.5952,0 -1.178,-0.1898 -1.6651,-0.5285 -0.8737,-1.1697 -1.2777,-2.5614 -0.7366,-3.9029 0.6411,-1.587 3.0176,-2.6817 5.8395,-3.1903 -0.004,0.0258 -0.0125,0.0517 -0.0208,0.0774 0.1373,-0.0621 0.2788,-0.1103 0.4245,-0.1452 0.15,-0.0238 0.3038,-0.0462 0.4536,-0.0666 0.0502,-0.0026 0.1,-0.0042 0.1499,-0.0042 0.6162,0 1.2319,0.2152 1.6982,0.6222 0.7284,0.6402 1.0405,1.7211 0.7575,2.6505 -0.2414,0.7992 -0.8783,1.4471 -1.6399,1.7922 -0.5078,0.231 -1.0447,0.3305 -1.59,0.3305 -0.2704,0 -0.5411,-0.0242 -0.8116,-0.0687 -0.1996,1.1325 -1.1238,2.1044 -2.2433,2.3637 -0.2039,0.0474 -0.4121,0.0699 -0.6159,0.0699z"/>
    <path id="_409754912" class="fil6" d="M89.2021 145.422c-1.9938,-0.537 -4.2539,0.0907 -5.6856,1.5782 -1.4316,1.4872 -1.9688,3.7721 -1.357,5.7417 -2.077,0.0188 -3.8233,1.9512 -3.9805,4.0244 -0.1573,2.074 1.321,4.1234 3.3063,4.7373 1.9895,0.6148 4.2995,-0.1827 5.5772,-1.8221 1.253,1.7193 3.4505,2.6004 5.5232,2.1214 2.0728,-0.4791 3.7751,-2.2747 4.1413,-4.3682 1.5234,0.2497 3.0426,0.1535 4.4452,-0.4837 1.4028,-0.6376 2.5847,-1.8346 3.0301,-3.3114 0.5161,-1.718 -0.0541,-3.7146 -1.4027,-4.898 -1.3484,-1.1829 -3.4047,-1.4883 -5.0404,-0.75 0.7827,-2.4219 -0.412,-5.283 -2.7636,-6.2565 -2.3515,-0.9735 -4.6324,1.4222 -5.7935,3.6869z"/>
    <path id="_409754936" class="fil10" d="M90.251 156.009c-0.6662,0 -1.3696,-0.1818 -1.9814,-0.4091 0.9615,-0.4088 1.8896,-0.9764 2.5014,-1.8222 0.6119,-0.8457 0.8533,-2.0111 0.412,-2.958 0.6286,0.4566 1.1322,1.0584 1.407,1.7835 0.2705,0.7245 0.2537,1.5791 -0.1541,2.2375 -0.1748,0.2831 -0.4163,0.5223 -0.6826,0.7226 -0.4287,0.3225 -0.9531,0.4458 -1.5023,0.4457z"/>
    <path id="_409755080" class="fil10" d="M97.6927 155.466c0.2749,-0.7309 0.4411,-1.5251 0.2996,-2.2921 -0.1413,-0.7671 -0.6493,-1.4988 -1.3901,-1.7473 0.1999,-0.0367 0.4037,-0.0561 0.6034,-0.0561 0.3705,0 0.741,0.0665 1.0864,0.2127 0.5329,0.2248 0.9865,0.6751 1.132,1.2349 0.0667,0.2405 0.0708,0.494 0.0417,0.7408 -0.0997,0.8828 -0.9739,1.5167 -1.773,1.9071z"/>
    <path id="_409755368" class="fil9" d="M244.795 147.578c-0.2664,0 -0.5369,-0.0613 -0.8033,-0.199 -1.3234,-0.6897 -1.898,-2.3975 -1.3818,-3.7943 0.5327,0.1398 1.0821,0.2078 1.6316,0.2078 1.5607,-0.0001 3.1256,-0.5507 4.3035,-1.5792 1.6525,-1.4401 2.4765,-3.7592 2.1311,-5.9181 0.4373,-0.2048 0.9156,-0.3151 1.3943,-0.3151 0.3747,0 0.7492,0.0675 1.0946,0.2094 1.1657,0.4749 1.9479,1.7864 1.7439,3.0263 -0.1952,1.1873 -1.2611,2.2197 -2.4514,2.2197 -0.0498,0 -0.1041,-0.0022 -0.1582,-0.0063 0.2666,1.2178 -0.179,2.5655 -1.1196,3.3855 -0.6366,0.5564 -1.486,0.8544 -2.3308,0.8544 -0.3993,0 -0.7991,-0.0665 -1.1737,-0.2038 -0.6575,1.0496 -1.7606,2.1127 -2.8803,2.1127zm-2.851 -3.9658c0.0416,-0.0657 0.0833,-0.1315 0.1249,-0.1972 0.121,0.0441 0.2414,0.0841 0.3621,0.1198 -0.1579,0.0407 -0.3247,0.0662 -0.487,0.0774z"/>
    <path id="_409754984" class="fil6" d="M242.069 143.415c2.1642,0.7916 4.7405,0.3133 6.4761,-1.2017 1.7401,-1.5155 2.5598,-4.0048 2.0685,-6.2561 2.3144,0.1815 4.4452,-1.798 4.8241,-4.0897 0.3746,-2.2917 -1.0698,-4.7153 -3.2215,-5.5922 -2.1473,-0.8766 -4.7948,-0.2139 -6.3806,1.4847 -1.2236,-2.0345 -3.5837,-3.2282 -5.9353,-2.8973 -2.3513,0.3313 -4.4202,2.1631 -5.0361,4.4564 -1.6688,-0.4263 -3.363,-0.467 -4.9903,0.1052 -1.6231,0.5727 -3.0509,1.7898 -3.6919,3.3888 -0.7448,1.861 -0.3038,4.1381 1.0821,5.5856 1.386,1.4472 3.6419,1.9874 5.5357,1.3249 -1.1028,2.618 -0.0542,5.9173 2.4682,7.2288 2.5181,1.3123 5.29,-1.1308 6.801,-3.5374z"/>
    <path id="_409755824" class="fil10" d="M240.387 137.218c-0.6495,-0.5686 -1.1532,-1.2873 -1.3862,-2.1201 -0.233,-0.8329 -0.1291,-1.7814 0.3871,-2.4745 0.2251,-0.298 0.5118,-0.541 0.8282,-0.7375 0.4163,-0.2598 0.8907,-0.3642 1.386,-0.3642 0.8409,0 1.7397,0.3038 2.4931,0.6626 -1.1067,0.3609 -2.1935,0.9025 -2.9593,1.7839 -0.7616,0.8812 -1.1445,2.154 -0.7489,3.2498z"/>
    <path id="_409756304" class="fil10" d="M234.057 136.032c-0.5202,0 -1.0365,-0.1098 -1.5026,-0.3553 -0.5702,-0.3026 -1.0281,-0.848 -1.1404,-1.4847 -0.0456,-0.274 -0.0293,-0.5561 0.029,-0.8282 0.1999,-0.972 1.2321,-1.5917 2.156,-1.9492 -0.3745,0.787 -0.6409,1.6541 -0.5536,2.5214 0.0836,0.8674 0.5745,1.7307 1.3736,2.0791 -0.1204,0.0112 -0.2414,0.0169 -0.362,0.0169z"/>
    <path id="_409756160" class="fil8" d="M181.227 57.8614c-0.0581,0 -0.1166,-0.0023 -0.1749,-0.0078 -0.6946,-0.0658 -1.336,-0.5323 -1.6148,-1.1728 -0.2162,0.0436 -0.4496,0.0695 -0.6867,0.0695 -0.6702,-0.0001 -1.3321,-0.2136 -1.5068,-0.8271 -0.0455,-0.1582 -0.0624,-0.3191 -0.0583,-0.4786 0.1167,-0.2969 0.2165,-0.5989 0.3039,-0.9061 0.15,-0.221 0.3455,-0.4108 0.5826,-0.546 0.8284,-0.2278 1.5817,-0.743 2.0645,-1.4551 0.4664,0.5755 1.1946,0.8561 1.9312,0.8561 0.5247,0 1.0489,-0.1394 1.4942,-0.4142 0.179,0.3896 0.2207,0.8426 0.104,1.2666 0.0044,0 0.0084,0 0.0126,0 0.6993,0 1.386,0.4421 1.6399,1.0926 0.2581,0.6555 0.025,1.478 -0.5577,1.8725 -0.2494,0.1698 -0.5536,0.2564 -0.8574,0.2564 -0.3993,0 -0.7908,-0.1519 -1.0447,-0.4637 -0.358,0.5299 -0.9949,0.8578 -1.6316,0.8577z"/>
    <path id="_409755704" class="fil11" d="M177.185 55.4446c0.0127,-0.3218 0.1206,-0.6372 0.3038,-0.9061 -0.087,0.3072 -0.1873,0.6093 -0.3038,0.9061z"/>
    <path id="_409756424" class="fil6" d="M173.818 51.94c0.5121,1.1833 1.698,2.0462 2.9798,2.1674 1.2863,0.121 2.6139,-0.5037 3.3381,-1.57 0.8162,1.0097 2.4432,1.1121 3.517,0.3828 1.0741,-0.7296 1.5025,-2.2495 1.0322,-3.4604 -0.4741,-1.2107 -1.7606,-2.0302 -3.0591,-2.019 0.3538,-1.2803 -0.0708,-2.6991 -1.1113,-3.5261 -1.0405,-0.8272 -2.5806,-0.9619 -3.7501,-0.328 -0.466,-0.8417 -1.1029,-1.5466 -1.9646,-1.9858 -0.8571,-0.4391 -1.9021,-0.5509 -2.7969,-0.1945 -1.0405,0.4147 -1.7981,1.4706 -1.848,2.5911 -0.054,1.12 0.5952,2.2443 1.5899,2.7565 -1.4857,0.5602 -2.4223,2.2573 -1.9853,3.786 0.4415,1.5283 2.4972,1.713 4.0583,1.4z"/>
    <path id="_409755920" class="fil10" d="M175.687 48.8709c-0.0207,-0.4836 0.0789,-0.9648 0.3245,-1.3801 0.25,-0.4155 0.6743,-0.7384 1.1571,-0.7954 0.0541,-0.0063 0.1082,-0.0092 0.1623,-0.0092 0.1541,0 0.308,0.0234 0.4537,0.0616 0.7203,0.1872 1.1446,0.984 1.3735,1.6903 -0.5409,-0.2931 -1.1363,-0.5165 -1.7522,-0.5165 -0.0374,0 -0.075,0.0008 -0.1124,0.0025 -0.649,0.0295 -1.3152,0.3633 -1.6065,0.9468z"/>
    <path id="_409756016" class="fil10" d="M173.877 45.9841c-0.2707,-0.2377 -0.4833,-0.5381 -0.579,-0.887 -0.0995,-0.3484 -0.0541,-0.7451 0.1624,-1.0347 0.0915,-0.1245 0.2121,-0.2259 0.3454,-0.3084 0.1751,-0.1083 0.3746,-0.1518 0.5785,-0.1518 0.3542,-0.0002 0.7284,0.1277 1.0447,0.2779 -0.4658,0.151 -0.9198,0.3771 -1.2362,0.7451 -0.3201,0.3687 -0.4828,0.9006 -0.3158,1.3589z"/>
    <path id="_409756040" class="fil12" d="M221.296 53.5097c-0.6663,-0.0022 -1.299,-0.4255 -1.507,-1.1263l-2.9881 -10.0545 -7.6833 4.5183 -0.1625 3.1441c-0.0206,0.3893 -0.2249,0.7464 -0.5454,0.9636 -0.2164,0.1449 -0.4579,0.2122 -0.6952,0.2114 -0.5115,-0.0021 -1.0031,-0.3217 -1.1735,-0.8569l-0.6951 -2.3996 -1.2319 0.7521c-0.0997,0.0604 -0.2083,0.0892 -0.3165,0.0887 -0.2037,-0.0009 -0.4038,-0.104 -0.5203,-0.2904 -0.1703,-0.2857 -0.0833,-0.6618 0.204,-0.8363l1.228 -0.7495 -1.9685 -1.4173c-0.6289,-0.5302 -0.5747,-1.5146 0.1078,-1.9736 0.2082,-0.14 0.4495,-0.2115 0.6951,-0.2106 0.1377,0.0003 0.2705,0.0233 0.4038,0.0691l2.9718 1.0359 6.8551 -5.8011 -8.1787 -6.5631c-0.8279,-0.6644 -0.7785,-1.9418 0.104,-2.5343 0.2668,-0.1785 0.5744,-0.269 0.8866,-0.2678 0.2164,0.0007 0.4328,0.0461 0.6367,0.1369l4.3329 1.938 0.3371 -0.5571c0.1498,-0.2466 0.4161,-0.3826 0.6826,-0.3818 0.1415,0.0005 0.2788,0.0372 0.4077,0.1136 0.3706,0.2254 0.4913,0.7151 0.2666,1.0881l-0.2332 0.3887 1.74 0.7777 0.4248 -0.7044c0.1498,-0.2463 0.4116,-0.3825 0.6821,-0.3817 0.142,0.0006 0.2788,0.0372 0.4079,0.1137 0.3708,0.2254 0.4911,0.715 0.2664,1.0879l-0.3245 0.5362 3.1925 1.4258 6.8756 -4.6241c0,0 2.2725,-1.4559 3.8208,-1.4503 0.4622,0.0015 0.8616,0.1324 1.1155,0.4692 1.4613,1.9213 -2.489,4.7846 -2.489,4.7846l-6.8009 4.5724 0.1002 3.0174 1.1654 -0.0852 0.0623 -0.0023c0.4078,0.0016 0.7573,0.3204 0.7864,0.7346 0.0334,0.4349 -0.2998,0.8162 -0.7325,0.8482l-1.232 0.0898 0.0669 1.8921 0.6991 -0.0516 0.0623 -0.002c0.4083,0.0016 0.7575,0.3205 0.7865,0.7346 0.0338,0.4346 -0.2954,0.8166 -0.7325,0.8483l-0.7657 0.0557 0.1751 5.2575c0.0206,0.5428 -0.2418,1.0561 -0.6955,1.359 -0.2742,0.1843 -0.5785,0.2698 -0.8778,0.2686z"/>
    <path id="_409756376" class="fil12" d="M231.718 29.188c-1.1157,-1.4691 -4.9367,0.9812 -4.9367,0.9812l-6.8755 4.624 -3.1925 -1.4258 0.3245 -0.5362c0.2247,-0.3729 0.1041,-0.8624 -0.2664,-1.0879 -0.3746,-0.2257 -0.8656,-0.1048 -1.0905,0.2681l-0.4243 0.7043 -1.74 -0.7777 0.2333 -0.3887c0.2247,-0.373 0.1038,-0.8627 -0.2667,-1.0881 -0.3744,-0.2254 -0.8615,-0.1046 -1.0903,0.2683l-0.3371 0.557 -4.3327 -1.9381c-0.4954,-0.2214 -1.074,-0.172 -1.5235,0.131 -0.8823,0.5924 -0.9324,1.8699 -0.104,2.5345l8.1787 6.5629 -6.8551 5.8011 -2.9718 -1.036c-0.3705,-0.1281 -0.7742,-0.0756 -1.0989,0.1416 -0.6824,0.459 -0.7367,1.4434 -0.1082,1.9737l1.9689 1.4172 -1.2277 0.7495c-0.2871,0.1744 -0.3749,0.5508 -0.2043,0.8363 0.1752,0.2855 0.5536,0.3762 0.8366,0.2018l1.2321 -0.7522 0.6954 2.3995c0.2538,0.7825 1.1858,1.1047 1.8684,0.6456 0.3206,-0.2172 0.5244,-0.5743 0.5452,-0.9636l0.1627 -3.1441 7.6833 -4.5183 2.9883 10.0544c0.3038,1.0181 1.5064,1.4506 2.3846,0.8578 0.4539,-0.3029 0.7159,-0.8162 0.6951,-1.3589l-0.1747 -5.2576 0.766 -0.0558c0.4368,-0.0316 0.7656,-0.4136 0.7322,-0.8482 -0.0289,-0.4345 -0.4119,-0.7641 -0.849,-0.7325l-0.6989 0.0515 -0.0669 -1.8921 1.2323 -0.09c0.4327,-0.0319 0.7655,-0.4131 0.7322,-0.848 -0.033,-0.4346 -0.4121,-0.7642 -0.8491,-0.7323l-1.165 0.0852 -0.1002 -3.0174 6.8012 -4.5724c0,0 3.9495,-2.8633 2.489,-4.7846z"/>
    <path id="_409756280" class="fil13" d="M207.361 45.5071l-3.6668 2.3162c-0.2664,0.1694 -0.35,0.5274 -0.1793,0.7958l0.0459 0.0757c0.1708,0.2681 0.5284,0.3489 0.7948,0.1795l3.667 -2.3162c0.2707,-0.1691 0.3495,-0.5274 0.183,-0.7958l-0.0496 -0.0754c-0.1709,-0.2681 -0.529,-0.3492 -0.795,-0.1798z"/>
    <path id="_409756952" class="fil13" d="M214.274 38.5768l1.5817 -1.0725 -7.2671 -4.7159c0,0 -0.945,0.4695 -0.8285,0.5614 0.1126,0.0918 6.5138,5.2272 6.5139,5.227z"/>
    <polygon id="_409756256" class="fil13" points="216.801,42.3289 218.395,41.2453 219.756,48.7278 218.877,49.3217 "/>
    <path id="_409757000" class="fil12" d="M118.208 161.51c0.5036,-0.2173 1.1237,-0.1073 1.5108,0.3534l5.5772 6.6066 4.312 -5.9485 -0.9156 -2.4287c-0.1166,-0.3005 -0.0792,-0.6367 0.0915,-0.9077 0.1166,-0.1811 0.2747,-0.3109 0.4536,-0.3883 0.3871,-0.1674 0.8658,-0.0879 1.1696,0.2589l1.3195 1.5828 0.6785 -0.9744c0.0583,-0.0782 0.1289,-0.136 0.2122,-0.1714 0.1539,-0.0671 0.3413,-0.0554 0.4869,0.0479 0.229,0.1581 0.283,0.4724 0.1249,0.6983l-0.6784 0.9715 1.9521 0.4208c0.6492,0.193 0.9322,0.9543 0.5701,1.5262 -0.1124,0.1744 -0.2706,0.3084 -0.4537,0.3888 -0.104,0.0441 -0.2164,0.0716 -0.3288,0.0807l-2.5888 0.199 -3.263 6.6448 8.3492 2.255c0.845,0.2286 1.2236,1.2108 0.7533,1.9496 -0.1416,0.2222 -0.3414,0.3925 -0.5786,0.4941 -0.1623,0.0706 -0.3413,0.1082 -0.5244,0.1065l-3.9164 -0.0321 -0.0708 0.532c-0.0293,0.2355 -0.1833,0.4258 -0.3872,0.514 -0.1081,0.0453 -0.2248,0.0641 -0.3455,0.0478 -0.3536,-0.0471 -0.6077,-0.3771 -0.5619,-0.7334l0.0501 -0.3708 -1.5691 -0.0133 -0.0916 0.673c-0.0292,0.2352 -0.1832,0.4254 -0.3872,0.5137 -0.1082,0.0453 -0.2248,0.0637 -0.3455,0.0477 -0.3578,-0.0469 -0.6077,-0.3766 -0.5619,-0.7329l0.0667 -0.5119 -2.8801 -0.0237 -3.6669 5.7633c0,0 -1.232,1.8484 -2.4058,2.357 -0.3495,0.151 -0.6951,0.1836 -0.9989,0.0137 -1.7356,-0.969 0.3038,-4.436 0.3038,-4.436l3.6254 -5.6984 -1.0739 -2.2459 -0.8491 0.4496 -0.0457 0.0216c-0.3122,0.1336 -0.6786,0.0083 -0.8367,-0.2947 -0.1705,-0.3179 -0.0458,-0.7151 0.2705,-0.8824l0.899 -0.4735 -0.67 -1.4085 -0.5161 0.2709 -0.0457 0.0217c-0.3082,0.134 -0.6745,0.0079 -0.8367,-0.2947 -0.1665,-0.3176 -0.0458,-0.7147 0.2746,-0.8824l0.5579 -0.2951 -1.8688 -3.9129c-0.1916,-0.4037 -0.1624,-0.8781 0.079,-1.2556 0.1458,-0.2302 0.3495,-0.3954 0.5744,-0.4937z"/>
    <path id="_409756856" class="fil12" d="M118.366 183.32c1.3279,0.7413 3.4046,-2.3707 3.4046,-2.3707l3.667 -5.7633 2.8801 0.0237 -0.0665 0.5119c-0.0459,0.3563 0.2038,0.686 0.5617,0.7329 0.3581,0.0471 0.6867,-0.2055 0.7326,-0.5613l0.0917 -0.6731 1.5691 0.0133 -0.0499 0.3708c-0.0459,0.3563 0.2079,0.6865 0.5617,0.7334 0.3581,0.0471 0.6868,-0.2056 0.7326,-0.5618l0.0709 -0.532 3.9165 0.0321c0.4454,0.0037 0.8655,-0.2231 1.1029,-0.6006 0.4704,-0.7388 0.0914,-1.721 -0.7534,-1.9496l-8.3491 -2.255 3.263 -6.6448 2.5889 -0.199c0.3204,-0.0251 0.6117,-0.1985 0.7824,-0.4695 0.3621,-0.5719 0.0791,-1.3331 -0.5702,-1.5262l-1.952 -0.4208 0.6785 -0.9715c0.1582,-0.2259 0.104,-0.5402 -0.125,-0.6983 -0.2246,-0.1574 -0.5411,-0.1025 -0.6992,0.1235l-0.6784 0.9744 -1.3193 -1.5828c-0.4495,-0.507 -1.2572,-0.4425 -1.6234,0.1294 -0.1706,0.2709 -0.2081,0.6072 -0.0915,0.9077l0.9156 2.4287 -4.312 5.9485 -5.5772 -6.6066c-0.5661,-0.6693 -1.615,-0.5985 -2.0852,0.1403 -0.2414,0.3775 -0.2706,0.8519 -0.0792,1.2556l1.869 3.9129 -0.5577 0.2951c-0.3205,0.1677 -0.4414,0.5648 -0.2748,0.8824 0.1666,0.3176 0.5659,0.4403 0.8822,0.273l0.5163 -0.2709 0.67 1.408 -0.899 0.474c-0.3162,0.1673 -0.4412,0.5645 -0.2705,0.8824 0.1666,0.3181 0.5618,0.4408 0.8824,0.2731l0.8491 -0.4496 1.0739 2.2459 -3.6254 5.6984c0,0 -2.0394,3.467 -0.3038,4.436z"/>
    <path id="_409756832" class="fil13" d="M131.377 162.953l2.0021 -2.9597c0.1455,-0.2164 0.0914,-0.5135 -0.1251,-0.6604l-0.0623 -0.0412c-0.2164,-0.1465 -0.5162,-0.0896 -0.6619,0.1269l-2.0019 2.9596c-0.1498,0.2165 -0.0917,0.5137 0.1248,0.6606l0.0624 0.0412c0.2167,0.147 0.512,0.0895 0.6619,-0.127z"/>
    <path id="_409757024" class="fil13" d="M128.438 170.471l-0.8368 1.3318 7.0466 1.1613c0,0 0.5577,-0.6655 0.4412,-0.6967 -0.1207,-0.0321 -6.6511,-1.7964 -6.651,-1.7964z"/>
    <polygon id="_409756808" class="fil13" points="125.296,168.47 124.447,169.815 120.951,164.613 121.417,163.875 "/>
    <path id="_409756616" class="fil6" d="M84.9565 89.7901c0.2707,0.6588 0.5994,1.284 0.9781,1.8743l0.3497 -0.2244c-0.362,-0.5702 -0.6785,-1.1734 -0.9449,-1.8089l-0.3829 0.159zm2.2642 3.552c0.4704,0.5206 0.9823,1.0055 1.5275,1.4539l0.2624 -0.3219c-0.5287,-0.4357 -1.0282,-0.9064 -1.4818,-1.4108l-0.3081 0.2788zm3.2424 2.6766c0.5953,0.3675 1.2152,0.6988 1.8562,0.994l0.175 -0.3783c-0.6244,-0.2882 -1.2321,-0.6114 -1.8107,-0.9699l-0.2205 0.3542zm3.8166 1.7635c0.6661,0.2198 1.3444,0.4026 2.031,0.5474l0.0836 -0.4071c-0.6703,-0.1419 -1.3322,-0.3205 -1.9855,-0.5357l-0.1291 0.3954zm4.1081 0.8704c0.695,0.0724 1.3943,0.1127 2.0935,0.1244l0.0085 -0.4162c-0.6868,-0.0117 -1.3737,-0.0512 -2.0605,-0.1224l-0.0415 0.4142zm4.1872 0.079c0.6991,-0.0412 1.3942,-0.1061 2.0851,-0.1918l-0.0498 -0.4133c-0.6868,0.0848 -1.3737,0.149 -2.0563,0.1893l0.021 0.4158zm4.1538 -0.5053c0.6866,-0.1215 1.3693,-0.2597 2.0518,-0.4104l-0.0916 -0.4062c-0.6742,0.1494 -1.3527,0.2864 -2.0311,0.4071l0.0709 0.4095zm4.0788 -0.8956c0.6785,-0.1719 1.3484,-0.353 2.0186,-0.5391l-0.1123 -0.4008c-0.6659,0.1853 -1.3362,0.3656 -2.0062,0.5365l0.0999 0.4034z"/>
    <path id="_409756496" class="fil6" d="M135.06 155.98c0.5744,-0.3692 1.1821,-0.6821 1.8064,-0.9481l-0.1623 -0.3833c-0.645,0.2743 -1.2695,0.5981 -1.8688,0.9806l0.2247 0.3508zm3.7502 -1.6115c0.6576,-0.1777 1.3318,-0.3163 2.0102,-0.4245l-0.0623 -0.4108c-0.6952,0.1098 -1.382,0.2514 -2.0562,0.4332l0.1083 0.4021zm4.0622 -0.6631c0.5827,-0.0461 1.1695,-0.0757 1.7522,-0.0945 0.1041,-0.0033 0.2123,-0.0061 0.3163,-0.0091l-0.0124 -0.4157c-0.104,0.0024 -0.2124,0.0057 -0.3164,0.009 -0.5869,0.0184 -1.1821,0.0488 -1.7731,0.0954l0.0334 0.4149zm4.1455 -0.1294c0.6909,-0.0025 1.3859,-0.003 2.081,-0.01l-0.004 -0.4162c-0.6909,0.0071 -1.3862,0.0075 -2.0812,0.0099l0.0042 0.4163zm4.1705 -0.0641c0.6951,-0.0321 1.39,-0.0812 2.0851,-0.1582l-0.0457 -0.4136c-0.6825,0.0757 -1.3694,0.1244 -2.0603,0.156l0.0209 0.4158zm4.1621 -0.4832c0.6828,-0.1436 1.3651,-0.3284 2.031,-0.5569l-0.1369 -0.3937c-0.6495,0.2226 -1.3115,0.4029 -1.9816,0.5435l0.0875 0.4071zm3.9707 -1.381c0.6326,-0.3251 1.2318,-0.6988 1.7938,-1.1251l-0.2538 -0.3308c-0.537,0.41 -1.1198,0.7712 -1.7274,1.0859l0.1874 0.37zm3.3381 -2.5777c0.2454,-0.2901 0.4785,-0.5967 0.6907,-0.9202 0.1792,-0.2734 0.3414,-0.5597 0.4828,-0.8561l-0.3742 -0.1798c-0.1377,0.2801 -0.2875,0.5503 -0.4583,0.8078 -0.1996,0.3081 -0.4202,0.6006 -0.6575,0.8778l0.3165 0.2705zm1.8229 -3.8058c0.0833,-0.4687 0.1248,-0.944 0.1248,-1.4168 0.0001,-0.2385 -0.0125,-0.4761 -0.0333,-0.7117l-0.4118 0.0378c0.0206,0.2231 0.0289,0.4484 0.0289,0.6739 0.0001,0.4479 -0.0417,0.8991 -0.1207,1.3435l0.4121 0.0733zm-0.4163 -4.2037c-0.2786,-0.6618 -0.6701,-1.2728 -1.1779,-1.7939l-0.2994 0.2901c0.4701,0.4811 0.8322,1.0472 1.0944,1.6656l0.3829 -0.1618zm-2.955 -3.0035c-0.6617,-0.2784 -1.3778,-0.4299 -2.0979,-0.4532l-0.012 0.4158c0.67,0.0221 1.3357,0.1632 1.9475,0.4212l0.1624 -0.3838zm-4.2204 -0.1386c-0.4326,0.1508 -0.8533,0.3546 -1.2363,0.6128 -0.2164,0.1434 -0.4245,0.3054 -0.616,0.4864l0.2873 0.3022c0.1706,-0.1627 0.362,-0.3104 0.5576,-0.4423 0.3581,-0.2378 0.7409,-0.4263 1.1446,-0.5653l-0.1372 -0.3938zm-2.8262 3.0538c0,0.0429 -0.0041,0.0853 -0.0041,0.1278 0.0041,0.7026 0.2912,1.3606 0.7366,1.9266l0.329 -0.2572c-0.4039,-0.514 -0.6494,-1.0846 -0.6494,-1.6694l0.0041 -0.107 -0.4162 -0.0208zm2.3852 3.4316c0.3245,0.182 0.6657,0.3335 1.0027,0.4492 0.3332,0.1123 0.6659,0.2043 1.0074,0.2763l0.0876 -0.407c-0.3249,-0.0687 -0.6454,-0.1565 -0.9576,-0.2635 -0.316,-0.107 -0.6326,-0.248 -0.9364,-0.4182l-0.2037 0.3632zm4.1205 0.929c0.7076,-0.0107 1.4149,-0.0973 2.1058,-0.2529l-0.0915 -0.4064c-0.6657,0.1499 -1.3404,0.2332 -2.0188,0.2432l0.0045 0.4161zm4.1163 -0.9176c0.6495,-0.286 1.2692,-0.6339 1.8478,-1.0377l-0.237 -0.3417c-0.5577,0.3887 -1.1532,0.7234 -1.7775,0.9985l0.1667 0.3809zm3.4589 -2.417c0.487,-0.5141 0.9194,-1.0785 1.2857,-1.6874l-0.3577 -0.2144c-0.3497,0.5819 -0.7619,1.1222 -1.2322,1.615l0.3042 0.2868zm2.1557 -3.6241c0.2207,-0.6734 0.3661,-1.3613 0.4743,-2.0572l-0.412 -0.0629c-0.1039,0.6789 -0.2497,1.3452 -0.4579,1.9928l0.3956 0.1273zm0.687 -4.1446c0.0455,-0.6946 0.0746,-1.3909 0.1037,-2.0831l-0.4161 -0.0188c-0.029,0.6939 -0.0584,1.3877 -0.1,2.075l0.4124 0.0269zm0.2369 -4.1509c0.0628,-0.6904 0.1539,-1.3701 0.2997,-2.0327l-0.4078 -0.0882c-0.1456,0.6841 -0.2416,1.3806 -0.3081,2.0822l0.4162 0.0387zm0.9074 -3.9761c0.0376,-0.0845 0.0748,-0.1685 0.1165,-0.2526l-0.3786 -0.1764c-0.0418,0.0878 -0.0793,0.1761 -0.1209,0.2647l0.383 0.1643z"/>
    <path id="_409756736" class="fil12" d="M85.2647 75.5089c0.0332,0.4579 -0.225,0.9196 -0.6953,1.101l-6.7808 2.6075 3.5345 5.0591 2.181 -0.0578c0.2664,-0.0071 0.5243,0.1132 0.6949,0.3247 0.1125,0.1409 0.1707,0.3034 0.1832,0.4666 0.0251,0.3532 -0.1707,0.7095 -0.5287,0.8582l-1.6188 0.6092 0.5825 0.8087c0.0501,0.0655 0.0749,0.1395 0.079,0.2145 0.0128,0.1414 -0.0499,0.285 -0.1706,0.3737 -0.1872,0.1361 -0.4536,0.0936 -0.5868,-0.0941l-0.5869 -0.807 -0.8705 1.4346c-0.3323,0.4624 -1.0149,0.4792 -1.3688,0.0326 -0.1077,-0.1361 -0.1702,-0.2997 -0.1826,-0.4687 -0.007,-0.0937 0.0012,-0.1886 0.0257,-0.2818l0.5544 -2.1085 -4.3752 -4.4199 -4.0887 6.0035c-0.4138,0.6081 -1.2987,0.6398 -1.7558,0.0634 -0.1372,-0.1737 -0.2164,-0.3817 -0.2322,-0.5957 -0.0111,-0.149 0.0079,-0.3017 0.06,-0.447l1.1037 -3.0987 -0.4027 -0.2024c-0.1786,-0.0894 -0.2866,-0.2646 -0.3011,-0.4506 -0.0065,-0.0957 0.0109,-0.1944 0.0567,-0.2856 0.1358,-0.2698 0.4669,-0.3795 0.737,-0.2438l0.2808 0.141 0.4431 -1.2437 -0.5094 -0.256c-0.1777,-0.0894 -0.2865,-0.2642 -0.3003,-0.4506 -0.0074,-0.0958 0.0105,-0.1944 0.0563,-0.286 0.1353,-0.2693 0.467,-0.3792 0.7367,-0.2435l0.3875 0.1943 0.8122 -2.2795 -3.5642 -4.4985c0,0 -1.1279,-1.4884 -1.2079,-2.5596 -0.0241,-0.3189 0.045,-0.6007 0.2639,-0.7955 1.2475,-1.1117 3.4376,1.4614 3.4376,1.4614l3.5239 4.4481 2.0779 -0.2323 -0.122 -0.8007 -0.0044 -0.0422c-0.0214,-0.2822 0.18,-0.5397 0.4643,-0.583 0.2984,-0.0454 0.5793,0.1615 0.6251,0.4599l0.1283 0.8435 1.3033 -0.1456 -0.0733 -0.4824 -0.0052 -0.0416c-0.0211,-0.2826 0.1798,-0.5398 0.4645,-0.583 0.2985,-0.0459 0.5798,0.1611 0.6252,0.4594l0.08 0.5257 3.6218 -0.405c0.3705,-0.0416 0.7408,0.1117 0.974,0.4063 0.1417,0.1798 0.2163,0.3862 0.2332,0.5934z"/>
    <path id="_409756664" class="fil12" d="M67.9105 69.627c-0.9537,0.8503 0.944,3.3552 0.944,3.3552l3.5642 4.4984 -0.8122 2.2795 -0.3874 -0.1943c-0.2697,-0.1357 -0.6016,-0.0258 -0.7368,0.2435 -0.1356,0.2696 -0.0254,0.6015 0.2439,0.7367l0.5095 0.2559 -0.4431 1.2437 -0.2808 -0.141c-0.2699,-0.1357 -0.6014,-0.0259 -0.737,0.2438 -0.1354,0.2696 -0.0255,0.601 0.2443,0.7364l0.4028 0.2022 -1.1036 3.0987c-0.1262,0.3541 -0.0609,0.7483 0.1721,1.0427 0.4572,0.5763 1.342,0.5447 1.7556,-0.0634l4.0889 -6.0035 4.3752 4.4199 -0.5544 2.1085c-0.0685,0.261 -0.0104,0.5386 0.1569,0.7505 0.354,0.4466 1.0364,0.4299 1.3686,-0.0326l0.8707 -1.4346 0.587 0.807c0.1332,0.1877 0.3994,0.2302 0.5867,0.0941 0.1874,-0.1358 0.2289,-0.4004 0.0916,-0.5881l-0.5825 -0.8088 1.6189 -0.6092c0.5245,-0.2177 0.6992,-0.8786 0.3454,-1.3248 -0.1705,-0.2115 -0.4287,-0.3318 -0.6951,-0.3247l-2.1808 0.0578 -3.5345 -5.0591 6.781 -2.6076c0.6866,-0.2638 0.9196,-1.1179 0.4619,-1.6943 -0.2329,-0.2948 -0.6035,-0.4479 -0.974,-0.4063l-3.6218 0.405 -0.0799 -0.5257c-0.0454,-0.2984 -0.3268,-0.5053 -0.6253,-0.4594 -0.2982,0.0453 -0.5053,0.3262 -0.4595,0.6247l0.0735 0.4823 -1.3033 0.1456 -0.1282 -0.8435c-0.0459,-0.2984 -0.3268,-0.5052 -0.6252,-0.4599 -0.2983,0.0453 -0.5053,0.3267 -0.46,0.6252l0.1221 0.8007 -2.0779 0.2323 -3.5239 -4.4481c0,0 -2.1903,-2.573 -3.4376,-1.4614z"/>
    <path id="_409757480" class="fil13" d="M80.4931 85.5614l1.7956 2.4061c0.1332,0.1756 0.3828,0.2123 0.5617,0.0807l0.0501 -0.0365c0.1749,-0.1316 0.2122,-0.3834 0.079,-0.5594l-1.7979 -2.4062c-0.1304,-0.1761 -0.3823,-0.2123 -0.5578,-0.0807l-0.0499 0.037c-0.1757,0.1311 -0.2119,0.383 -0.0808,0.559z"/>
    <path id="_409757432" class="fil13" d="M75.3349 81.1615l-0.8261 -1.0334 -2.8626 5.2739c0,0 0.3753,0.6251 0.4323,0.5411 0.0572,-0.0841 3.2564,-4.7815 3.2564,-4.7816z"/>
    <polygon id="_409757240" class="fil13" points="77.7886,79.2174 76.9545,78.1736 82.0473,76.8312 82.5051,77.4039 "/>
    <path id="_409757576" class="fil6" d="M80.708 79.0101l2.9625 4.0548c0.0666,0.0929 0.1955,0.1133 0.2912,0.0454 0.0918,-0.0678 0.1125,-0.198 0.0459,-0.2909l-2.9635 -4.0548c-0.0678,-0.0928 -0.198,-0.1131 -0.2909,-0.0453 -0.0927,0.0678 -0.1133,0.1981 -0.0452,0.2908z"/>
    <path id="_409757960" class="fil6" d="M80.3337 80.6618l1.5847 2.0335c0.0707,0.0907 0.1995,0.107 0.2912,0.0362 0.0915,-0.0703 0.1082,-0.2009 0.0374,-0.2916l-1.5849 -2.0337c-0.0702,-0.0907 -0.2015,-0.107 -0.2919,-0.0367 -0.0907,0.0707 -0.1069,0.2015 -0.0365,0.2923z"/>
    <path id="_409757216" class="fil6" d="M75.116 83.3284l1.9077 2.6113c0.0678,0.0928 0.1975,0.1132 0.2903,0.0454 0.0929,-0.0678 0.1132,-0.1977 0.0453,-0.2905l-1.9073 -2.6119c-0.0679,-0.0927 -0.1978,-0.1131 -0.2907,-0.0453 -0.093,0.0679 -0.1131,0.1982 -0.0453,0.291z"/>
    <path id="_409757312" class="fil6" d="M74.3041 84.237l2.6104 3.574c0.0679,0.0928 0.198,0.1132 0.2909,0.0454 0.0928,-0.0678 0.1128,-0.1981 0.0449,-0.2909l-2.61 -3.5742c-0.0677,-0.0927 -0.1982,-0.1127 -0.291,-0.0452 -0.0928,0.0678 -0.1128,0.1981 -0.0452,0.2909z"/>
    <path id="_409757384" class="fil12" d="M248.541 106.309c-0.2496,-0.3853 -0.2415,-0.9135 0.0832,-1.3001l4.6995 -5.5398 -5.5277 -2.7434 -1.8851 1.096c-0.2332,0.1357 -0.5164,0.1536 -0.7662,0.0487 -0.1665,-0.0704 -0.2955,-0.1844 -0.383,-0.3217 -0.1913,-0.2972 -0.1956,-0.7031 0.0501,-1.0061l1.1281 -1.3115 -0.899 -0.4291c-0.0749,-0.034 -0.1335,-0.0869 -0.1751,-0.1503 -0.0749,-0.119 -0.0916,-0.2741 -0.025,-0.4107 0.1004,-0.209 0.3497,-0.2988 0.5619,-0.1993l0.8992 0.4278 0.0749 -1.6769c0.0707,-0.5653 0.6616,-0.9069 1.1861,-0.6847 0.1582,0.0674 0.2914,0.181 0.3829,0.323 0.0544,0.079 0.0916,0.1664 0.1123,0.2601l0.5288 2.116 5.956 1.7793 0.7075 -7.2292c0.0707,-0.7321 0.8323,-1.1844 1.5108,-0.8978 0.204,0.0866 0.3746,0.2311 0.4911,0.4113 0.0794,0.1257 0.1374,0.2684 0.1624,0.4208l0.5164 3.2481 0.4495 -0.0154c0.1995,-0.0071 0.3784,0.0945 0.4824,0.2514 0.0501,0.0807 0.0833,0.1757 0.0875,0.2776 0.0083,0.3018 -0.2289,0.5573 -0.5286,0.5677l-0.3162 0.0109 0.208 1.3035 0.5702 -0.02c0.2,-0.0066 0.3787,0.095 0.4787,0.2514 0.0542,0.0808 0.0831,0.1757 0.0874,0.2781 0.0127,0.3017 -0.229,0.5569 -0.5287,0.5673l-0.4325 0.0149 0.3788 2.39 5.286 2.2375c0,0 1.7019,0.7647 2.2887,1.6665 0.1751,0.2681 0.2498,0.5486 0.1498,0.8241 -0.5618,1.5741 -3.7167,0.3672 -3.7167,0.3672l-5.2276 -2.2122 -1.7105 1.2004 0.4912 0.6438 0.0249 0.0346c0.1539,0.2376 0.0997,0.5602 -0.1292,0.7346 -0.2413,0.1831 -0.5869,0.1365 -0.77,-0.1037l-0.5159 -0.6788 -1.0736 0.7529 0.2954 0.3879 0.0248 0.0346c0.1541,0.2376 0.0997,0.5602 -0.1292,0.7346 -0.2369,0.1831 -0.5869,0.1365 -0.77,-0.1036l-0.3201 -0.4229 -2.9803 2.0923c-0.3082,0.2156 -0.7078,0.258 -1.0532,0.1112 -0.212,-0.0891 -0.3746,-0.2344 -0.4911,-0.4089z"/>
    <path id="_409757816" class="fil12" d="M266.592 103.145c0.4289,-1.2033 -2.439,-2.4906 -2.439,-2.4906l-5.2855 -2.2375 -0.3788 -2.39 0.4326 -0.0149c0.2997,-0.0104 0.541,-0.2655 0.5286,-0.5673 -0.0084,-0.3018 -0.2664,-0.5399 -0.5661,-0.5294l-0.5702 0.0199 -0.208 -1.3035 0.3166 -0.0109c0.2996,-0.0104 0.5364,-0.2659 0.5282,-0.5677 -0.0122,-0.3013 -0.2664,-0.5398 -0.5703,-0.529l-0.4491 0.0154 -0.5161 -3.2481c-0.0626,-0.3709 -0.3084,-0.6855 -0.6538,-0.8321 -0.6783,-0.2868 -1.4401,0.1657 -1.5109,0.8979l-0.7074 7.2291 -5.956 -1.7793 -0.5286 -2.116c-0.0623,-0.2623 -0.2457,-0.4782 -0.4954,-0.5831 -0.5245,-0.2222 -1.1154,0.1194 -1.1862,0.6847l-0.0748 1.6769 -0.8991 -0.4278c-0.2121,-0.0996 -0.4621,-0.0096 -0.562,0.1993 -0.0996,0.2093 -0.0124,0.4619 0.1998,0.561l0.8993 0.4291 -1.1279 1.3115c-0.3582,0.4433 -0.1917,1.1055 0.3327,1.3278 0.2498,0.1049 0.5327,0.087 0.7658,-0.0487l1.8855 -1.096 5.5277 2.7434 -4.6994 5.5398c-0.4742,0.561 -0.2706,1.4226 0.4078,1.709 0.3457,0.1468 0.745,0.1044 1.0531,-0.1112l2.9804 -2.0923 0.3202 0.4229c0.1832,0.2401 0.5326,0.2868 0.7699,0.1036 0.2416,-0.1828 0.2871,-0.5286 0.104,-0.7692l-0.295 -0.3879 1.0736 -0.7529 0.5161 0.6788c0.1829,0.2402 0.5283,0.2868 0.7698,0.1037 0.2415,-0.1827 0.2871,-0.529 0.104,-0.7692l-0.4909 -0.6438 1.7105 -1.2004 5.2279 2.2122c0,0 3.1546,1.2069 3.7164,-0.3672z"/>
    <path id="_409757936" class="fil13" d="M247.908 95.1996l-2.7303 -1.249c-0.1999,-0.0916 -0.4414,-0.0024 -0.5329,0.1973l-0.0248 0.0557c-0.0917,0.2002 -0.0001,0.4383 0.1996,0.53l2.7307 1.2489c0.1999,0.0916 0.4368,0.0026 0.5283,-0.1973l0.0252 -0.0561c0.0917,-0.1999 0.004,-0.4378 -0.1958,-0.5295z"/>
    <path id="_409758008" class="fil13" d="M254.543 96.586l1.2236 0.5107 -0.0207 -6.0013c0,0 -0.6287,-0.3684 -0.6369,-0.2673 -0.0126,0.1011 -0.5661,5.758 -0.566,5.7579z"/>
    <polygon id="_409758056" class="fil13" points="253.324,99.4688 254.555,99.9845 250.73,103.605 250.056,103.322 "/>
    <path id="_409758080" class="fil6" d="M250.863 101.051l-4.5448 -2.1372c-0.1044,-0.0486 -0.2292,-0.0041 -0.2792,0.0999 -0.0457,0.1041 -0.0042,0.2277 0.0999,0.2768l4.5453 2.1372c0.1039,0.0488 0.2287,0.0043 0.2745,-0.0998 0.0499,-0.1042 0.0041,-0.2281 -0.0957,-0.2769z"/>
    <path id="_409758128" class="fil6" d="M250.397 99.4225l-2.3641 -1.0251c-0.104,-0.0453 -0.2293,0.0029 -0.275,0.1083 -0.0458,0.1057 0.0041,0.228 0.1082,0.2738l2.3642 1.0247c0.1082,0.0458 0.2288,-0.0025 0.2747,-0.1082 0.0461,-0.1054 -0.0043,-0.2277 -0.108,-0.2735z"/>
    <path id="_409758608" class="fil6" d="M253.698 94.5795l-2.9261 -1.3764c-0.1039,-0.0487 -0.2292,-0.0041 -0.2791,0.0999 -0.0496,0.104 -0.0042,0.2281 0.0998,0.2768l2.9264 1.3764c0.104,0.0491 0.2285,0.0046 0.2784,-0.0995 0.0462,-0.104 0.0043,-0.228 -0.0994,-0.2772z"/>
    <path id="_409758416" class="fil6" d="M253.972 93.3928l-4.004 -1.8837c-0.1039,-0.0492 -0.229,-0.0042 -0.2789,0.0998 -0.0455,0.1041 -0.0041,0.2277 0.0998,0.2768l4.0085 1.8838c0.1039,0.0488 0.2245,0.0042 0.2745,-0.0998 0.0499,-0.1042 0.0041,-0.2282 -0.0999,-0.2769z"/>
    <path id="_409758464" class="fil6" d="M137.512 164.628l-3.7293 6.361c-0.0583,0.0995 -0.025,0.2268 0.0706,0.2851 0.1,0.0579 0.2289,0.0245 0.2872,-0.0745l3.7294 -6.361c0.0583,-0.0991 0.0249,-0.2269 -0.075,-0.2847 -0.0997,-0.0582 -0.2248,-0.025 -0.2829,0.0741z"/>
    <path id="_409758176" class="fil6" d="M134.536 164.791l-2.4098 4.1987c-0.054,0.0994 -0.021,0.2269 0.0789,0.2839 0.1,0.0574 0.2248,0.0228 0.2831,-0.077l2.4057 -4.1988c0.0584,-0.0995 0.0249,-0.2268 -0.0749,-0.2839 -0.0999,-0.057 -0.229,-0.0229 -0.283,0.0771z"/>
    <path id="_409758368" class="fil6" d="M127.901 157.095l-4.5531 6.9973c-0.0626,0.0962 -0.0335,0.2252 0.0621,0.288 0.0958,0.0625 0.2248,0.0354 0.2872,-0.0611l4.5536 -6.997c0.0623,-0.0965 0.0373,-0.2256 -0.0626,-0.288 -0.0957,-0.0629 -0.2248,-0.0354 -0.2872,0.0608z"/>
    <path id="_409758656" class="fil6" d="M125.741 156.336l-3.7126 6.0475c-0.0583,0.0978 -0.0293,0.2261 0.0706,0.286 0.0958,0.0603 0.2248,0.0295 0.2831,-0.0682l3.7169 -6.0472c0.0583,-0.0982 0.029,-0.2264 -0.0709,-0.2864 -0.0956,-0.0603 -0.2248,-0.0295 -0.2871,0.0683z"/>
    <path id="_409759400" class="fil6" d="M204.501 41.0227l6.0891 -4.1125c0.0959,-0.0643 0.1206,-0.1937 0.0583,-0.2889 -0.0663,-0.0953 -0.1958,-0.1204 -0.2915,-0.0561l-6.0891 4.1125c-0.0955,0.0645 -0.1207,0.1938 -0.0583,0.289 0.0668,0.0952 0.1956,0.1204 0.2915,0.056z"/>
    <path id="_409759184" class="fil6" d="M206.895 41.6616l3.059 -2.2064c0.0918,-0.0672 0.1166,-0.1973 0.0458,-0.2905 -0.0664,-0.0933 -0.1956,-0.1143 -0.2872,-0.0472l-3.0629 2.2065c-0.0918,0.0672 -0.1128,0.1973 -0.0462,0.2906 0.0667,0.0932 0.1957,0.1141 0.2915,0.047z"/>
    <path id="_409758824" class="fil6" d="M210.512 49.4369l3.9248 -2.6488c0.0954,-0.0644 0.1204,-0.1935 0.0579,-0.2888 -0.0664,-0.0953 -0.1956,-0.1202 -0.2914,-0.0561l-3.9246 2.6488c-0.0918,0.0644 -0.1168,0.1939 -0.0544,0.2893 0.0629,0.0948 0.1957,0.1202 0.2877,0.0556z"/>
    <path id="_409757840" class="fil6" d="M211.798 50.6735l5.3693 -3.6247c0.0954,-0.0646 0.1205,-0.1935 0.0579,-0.2889 -0.0664,-0.0953 -0.1956,-0.1203 -0.2913,-0.0561l-5.3691 3.6246c-0.0913,0.0647 -0.1165,0.1936 -0.0541,0.2889 0.0625,0.0953 0.1956,0.1204 0.2873,0.0562z"/>
    <path id="_409758992" class="fil6" d="M199.158 52.6543c-0.5831,0.4253 -1.0826,0.9315 -1.5322,1.4804l0.325 0.2627c0.4285,-0.5286 0.9029,-1.0076 1.4523,-1.4067l-0.2451 -0.3364zm-2.743 3.2011c-0.3662,0.5818 -0.7203,1.1717 -1.0907,1.7377l-0.0125 0.0225 0.3455 0.2272 0.0169 -0.0229c0.3746,-0.5745 0.7279,-1.1653 1.0943,-1.7414l-0.3535 -0.2231zm-2.2977 3.4433c-0.4205,0.5453 -0.8616,1.0743 -1.3236,1.5849l0.308 0.279c0.4705,-0.5187 0.9157,-1.056 1.3443,-1.6096l-0.3287 -0.2543zm-2.7677 3.0613c-0.4871,0.4602 -0.9908,0.9024 -1.511,1.3239l-0.0413 0.0345 0.2623 0.3248 0.0416 -0.0359c0.5282,-0.4282 1.0401,-0.8773 1.5354,-1.3447l-0.287 -0.3026zm-3.2633 2.4415c-0.5908,0.2743 -1.1988,0.445 -1.7689,0.4445 -0.0497,-0.0001 -0.0958,-0.0013 -0.1457,-0.0038l-0.0205 0.4158c0.0538,0.003 0.1121,0.0043 0.1662,0.0043 0.6536,-0.0005 1.311,-0.192 1.9436,-0.4828l-0.1747 -0.378zm-3.5628 -0.3759c-0.2997,-0.3912 -0.4454,-0.8973 -0.4454,-1.423 0.0001,-0.1324 0.0125,-0.2659 0.0292,-0.3987l-0.4117 -0.0566c-0.021,0.151 -0.0337,0.3035 -0.0337,0.4553 0.0001,0.6014 0.1666,1.1975 0.5285,1.6749l0.3331 -0.2519zm0.4454 -3.5087c0.1292,-0.1144 0.2704,-0.2139 0.4245,-0.2959 0.3996,-0.2132 0.8407,-0.3117 1.2902,-0.3117l0.0669 0.0008 0.0084 -0.4162 -0.0749 -0.0008c-0.5123,0 -1.0201,0.1128 -1.4862,0.3609 -0.1831,0.0977 -0.3539,0.2164 -0.5037,0.352l0.2748 0.3109zm3.6297 -0.0166c0.4992,0.3234 0.9194,0.7651 1.1942,1.2807 0.0335,0.0574 0.0623,0.1157 0.0874,0.1745l0.3788 -0.1766c-0.0332,-0.0649 -0.0625,-0.1298 -0.0959,-0.1935 -0.3119,-0.5849 -0.7865,-1.0751 -1.336,-1.4342l-0.2285 0.3491zm1.6646 3.3838c-0.0164,0.6585 -0.1707,1.3253 -0.4371,1.9434l0.3833 0.1631c0.2828,-0.6639 0.449,-1.3797 0.4698,-2.0948l-0.416 -0.0117zm-1.5274 3.619c-0.4538,0.4956 -0.9783,0.927 -1.5526,1.2994l0.2289 0.3488c0.5952,-0.3892 1.1486,-0.8419 1.6273,-1.3672l-0.3036 -0.281zm-3.3628 2.2416c-0.1208,0.0509 -0.2418,0.0996 -0.3667,0.1462 -0.5161,0.1965 -1.0446,0.3634 -1.5774,0.5083l0.1085 0.4015c0.5451,-0.1477 1.086,-0.3187 1.6146,-0.5206 0.1292,-0.0483 0.2539,-0.0986 0.3828,-0.1506l-0.1618 -0.3848zm-3.9586 1.1052c-0.6742,0.1252 -1.361,0.231 -2.0478,0.3317l0.0625 0.412c0.6868,-0.1011 1.3776,-0.2076 2.0601,-0.3346l-0.0748 -0.4091zm-4.1078 0.633c-0.6869,0.1048 -1.3737,0.2199 -2.0605,0.3589l0.0836 0.4077c0.6742,-0.1369 1.3565,-0.2505 2.0432,-0.3554l-0.0663 -0.4112zm-4.0958 0.8779c-0.67,0.2093 -1.3319,0.4587 -1.9686,0.7524l0.1748 0.3779c0.6162,-0.2855 1.261,-0.5285 1.9186,-0.7332l-0.1248 -0.3971zm-3.8082 1.795c-0.5866,0.4063 -1.1281,0.8674 -1.6025,1.3907l0.3084 0.2804c0.4495,-0.4973 0.9693,-0.9385 1.5313,-1.3289l-0.2372 -0.3422z"/>
    <path id="_409759040" class="fil6" d="M236.005 93.5135c-0.6161,-0.3079 -1.2447,-0.6176 -1.8774,-0.9127l-0.1744 0.3775c0.6283,0.2918 1.2483,0.6002 1.8643,0.9073l0.1875 -0.3721zm-3.804 -1.7339c-0.6621,-0.2497 -1.3322,-0.4661 -2.0108,-0.6309l-0.0995 0.4045c0.6616,0.1598 1.315,0.3709 1.9601,0.6155l0.1502 -0.3891zm-4.0999 -0.9527c-0.1999,-0.0116 -0.3997,-0.0179 -0.6037,-0.0179 -0.0579,0 -0.1165,0.0008 -0.1748,0.0017 -0.4492,0.0083 -0.899,0.0579 -1.3486,0.1457l0.0837 0.4082c0.42,-0.0832 0.8488,-0.1303 1.2691,-0.1377 0.0584,-0.0008 0.1165,-0.0017 0.1706,-0.0017 0.1959,0 0.3871,0.0058 0.5786,0.0175l0.0251 -0.4158zm-4.1411 0.8136c-0.6494,0.321 -1.249,0.7285 -1.761,1.213l0.2875 0.302c0.4785,-0.4531 1.0444,-0.8381 1.6562,-1.142l-0.1827 -0.373zm-3.022 2.9494c-0.2121,0.4598 -0.3538,0.9544 -0.4121,1.478 -0.0122,0.1323 -0.0209,0.266 -0.0209,0.4 0.0004,0.0802 0.0043,0.1606 0.0084,0.2409l0.4162 -0.0267c-0.0038,-0.0715 -0.0084,-0.1431 -0.0084,-0.2142 0.0004,-0.1191 0.0042,-0.2373 0.0209,-0.3538 0.0502,-0.4782 0.183,-0.9294 0.3746,-1.351l-0.3787 -0.1732zm0.2749 4.1692c0.4284,0.6293 1.0277,1.1218 1.752,1.3024l0.0998 -0.4042c-0.5988,-0.1487 -1.1237,-0.5677 -1.5066,-1.1312l-0.3452 0.233zm3.8999 0.8757c0.5952,-0.4058 1.0611,-1.0106 1.3774,-1.6718l-0.3786 -0.1787c-0.287,0.6056 -0.7161,1.1538 -1.2363,1.5068l0.2375 0.3437zm1.8852 -3.7597c0.0041,-0.1094 0.0083,-0.2188 0.0083,-0.3283 0.0001,-0.6061 -0.0875,-1.2091 -0.2497,-1.7964l-0.4034 0.1115c0.154,0.5536 0.2368,1.1197 0.2368,1.6849 0.0001,0.1019 -0.0041,0.2043 -0.0082,0.3063l0.4162 0.022zm-1.0901 -4.0793c-0.3666,-0.6056 -0.8079,-1.1707 -1.3073,-1.6764l-0.2955 0.2933c0.479,0.4821 0.899,1.0215 1.2445,1.5975l0.3583 -0.2144zm-2.9804 -2.9942c-0.1413,-0.0854 -0.2831,-0.1669 -0.4288,-0.2434 -0.4866,-0.2548 -0.9864,-0.4675 -1.4984,-0.6419l-0.133 0.3942c0.4912,0.1677 0.9696,0.3717 1.4357,0.6163 0.1417,0.0725 0.2748,0.1495 0.4122,0.2311l0.2123 -0.3563zm-3.9833 -1.383c-0.6906,-0.1067 -1.3943,-0.1586 -2.1018,-0.1657l-0.0038 0.4161c0.6906,0.0071 1.3731,0.0575 2.0432,0.1607l0.0624 -0.4111zm-4.2033 -0.0629c-0.6996,0.0724 -1.3905,0.1803 -2.0732,0.3143l0.0794 0.4087c0.67,-0.132 1.3524,-0.2376 2.0392,-0.3089l-0.0454 -0.4141zm-4.1126 0.787c-0.6743,0.1761 -1.3444,0.3672 -2.0103,0.5636l0.1167 0.3992c0.6659,-0.1956 1.3275,-0.3858 1.9976,-0.5602l-0.104 -0.4026zm-4.0081 1.1596c-0.6616,0.1977 -1.3278,0.3913 -1.9937,0.5711l0.1085 0.4016c0.6742,-0.1811 1.3399,-0.3759 2.0059,-0.574l-0.1207 -0.3987zm-4.0039 1.0597c-0.1125,0.0237 -0.2249,0.0471 -0.3372,0.0691l0.0834 0.4082c0.1123,-0.0229 0.2246,-0.0461 0.3411,-0.0703l-0.0873 -0.407z"/>
   </g>
  </g>
 </g>
</svg>
